<?xml version="1.0" encoding="UTF-8"?>
<svg version="1.1" xmlns="http://www.w3.org/2000/svg" width="204" height="295">
<path d="M0 0 C4.49527749 3.62961195 8.78179391 7.17269086 12 12 C8.67406507 13.10864498 8.01539269 12.86137757 4.8125 11.875 C-0.18627954 10.66811685 -3.59148584 11.40857833 -8 14 C-10.18018684 15.65371616 -10.18018684 15.65371616 -11 18 C-10.62017394 22.97357138 -8.82847816 26.64299826 -6.25 30.8125 C-5.85804443 31.45703125 -5.46608887 32.1015625 -5.06225586 32.765625 C-1.37205106 38.68244501 2.83017002 44.15666583 7.11450195 49.65039062 C21.80223723 68.5312409 34.10616518 87.87057068 31.4375 112.75 C30.3389947 121.36013008 27.42947943 129.07200141 24 137 C23.59652344 137.93714844 23.19304687 138.87429687 22.77734375 139.83984375 C12.68232504 161.50135848 -6.65268864 179.11499442 -28.75 187.875 C-54.1241706 196.91493793 -81.12006021 196.69893573 -106 186 C-131.4774433 173.8939011 -148.42503698 151.9909651 -157.7734375 125.7890625 C-159.93596958 119.10862902 -161.27895622 113.34427374 -161.25 106.25 C-161.25515625 104.97640625 -161.2603125 103.7028125 -161.265625 102.390625 C-161.0212769 99.27159343 -160.78434826 97.5288522 -159 95 C-156.625 94.0625 -156.625 94.0625 -154 94 C-151.8359375 95.49609375 -151.8359375 95.49609375 -150 97 C-150.144375 96.00742188 -150.28875 95.01484375 -150.4375 93.9921875 C-153.07912447 75.05467521 -153.95345137 53.56207319 -142.0390625 37.328125 C-138.18311711 32.82713298 -135.15546832 29.48017996 -129.125 28.5625 C-124.97556376 29.14342107 -122.58467397 30.81997978 -120 34 C-118.41967261 36.91677709 -117.15144858 39.89108883 -116 43 C-115.40574219 42.10539062 -114.81148437 41.21078125 -114.19921875 40.2890625 C-105.24556087 27.09834044 -94.39297425 15.3093105 -78.3125 11.3359375 C-69.30329683 10.02716812 -61.81098621 12.03151915 -54.0625 16.8125 C-49.9307411 21.19466853 -47.77348582 24.80524243 -47.5 30.8125 C-48.11278483 43.48948614 -56.44323595 52.70789749 -64.1875 62.0625 C-71.81296633 71.48571871 -76.88805067 83.0505434 -75.7890625 95.36328125 C-74.22413922 103.9113056 -70.08949207 109.6795931 -63.16015625 114.7734375 C-56.16875317 118.74323961 -48.83419299 118.75122399 -41 118 C-37.90780428 116.99456213 -35.78907441 115.75608389 -33 114 C-32.31164062 113.70867187 -31.62328125 113.41734375 -30.9140625 113.1171875 C-28.5072189 111.71237675 -28.04121058 110.55443662 -27 108 C-26.65839844 107.2678125 -26.31679687 106.535625 -25.96484375 105.78125 C-25.45630859 104.65203125 -25.45630859 104.65203125 -24.9375 103.5 C-24.59589844 102.7471875 -24.25429687 101.994375 -23.90234375 101.21875 C-19.39014712 90.12382496 -21.28253273 76.6009925 -25.375 65.71875 C-27.37551381 60.9939184 -29.68135327 56.41953987 -32.04125977 51.86572266 C-39.27255501 37.87844475 -44.43231139 22.48651213 -40.09375 6.703125 C-37.09750152 0.36490705 -33.33500694 -3.53259694 -26.875 -6.375 C-16.56798208 -8.03742224 -8.50484116 -5.97938614 0 0 Z " fill="#E04A1C" transform="translate(168,59)"/>
<path d="M0 0 C4.49527749 3.62961195 8.78179391 7.17269086 12 12 C8.67406507 13.10864498 8.01539269 12.86137757 4.8125 11.875 C-0.18627954 10.66811685 -3.59148584 11.40857833 -8 14 C-10.18018684 15.65371616 -10.18018684 15.65371616 -11 18 C-10.62017394 22.97357138 -8.82847816 26.64299826 -6.25 30.8125 C-5.85804443 31.45703125 -5.46608887 32.1015625 -5.06225586 32.765625 C-1.37296449 38.68098042 2.82703299 44.15510132 7.11230469 49.64599609 C23.35938674 70.51944667 23.35938674 70.51944667 27 81 C26.67 81.66 26.34 82.32 26 83 C24.515 82.01 24.515 82.01 23 81 C23 79.68 23 78.36 23 77 C22.01 77 21.02 77 20 77 C19.01 74.36 18.02 71.72 17 69 C17.04640625 70.39992188 17.0928125 71.79984375 17.140625 73.2421875 C17.48819793 87.95390555 16.39619365 97.85145023 6 109 C2.41870824 112 2.41870824 112 0 112 C0 112.66 0 113.32 0 114 C-1.72850345 114.79311367 -3.45783354 115.5844259 -5.1875 116.375 C-6.15042969 116.81585938 -7.11335938 117.25671875 -8.10546875 117.7109375 C-21.97805804 123.8890137 -36.80126855 122.62218866 -51.5625 120.6875 C-52.4901416 120.56987305 -53.4177832 120.45224609 -54.37353516 120.33105469 C-59.70871646 119.5745521 -64.21713706 118.52499546 -69 116 C-70.69618829 113.05010733 -71 111.40117798 -71 108 C-70.27296875 108.70576172 -70.27296875 108.70576172 -69.53125 109.42578125 C-61.47997366 116.90417831 -55.38007335 118.58762997 -44.3515625 118.36328125 C-39.69108091 117.85812416 -36.9497001 116.48684821 -33 114 C-32.31164062 113.70867187 -31.62328125 113.41734375 -30.9140625 113.1171875 C-28.5072189 111.71237675 -28.04121058 110.55443662 -27 108 C-26.65839844 107.2678125 -26.31679687 106.535625 -25.96484375 105.78125 C-25.62582031 105.0284375 -25.28679687 104.275625 -24.9375 103.5 C-24.42509766 102.37078125 -24.42509766 102.37078125 -23.90234375 101.21875 C-19.39014712 90.12382496 -21.28253273 76.6009925 -25.375 65.71875 C-27.37551381 60.9939184 -29.68135327 56.41953987 -32.04125977 51.86572266 C-39.27255501 37.87844475 -44.43231139 22.48651213 -40.09375 6.703125 C-37.09750152 0.36490705 -33.33500694 -3.53259694 -26.875 -6.375 C-16.56798208 -8.03742224 -8.50484116 -5.97938614 0 0 Z " fill="#EC2E2D" transform="translate(168,59)"/>
<path d="M0 0 C3.67827979 1.31367135 4.78465181 3.69529813 6.625 6.9375 C7.05425781 7.6284375 7.48351563 8.319375 7.92578125 9.03125 C10.61091341 13.37378179 13.05352195 17.76750787 15.34008789 22.33349609 C21.52313367 34.51951401 29.96315243 43.86316184 40.21484375 52.81640625 C42.625 54.9375 42.625 54.9375 44.640625 57 C46.7706817 59.0797404 48.9792816 60.69876603 51.4375 62.375 C54.51054712 64.48262081 57.55861762 66.60752251 60.5625 68.8125 C63.46863962 71.04150091 63.46863962 71.04150091 66.625 71.9375 C66.625 72.5975 66.625 73.2575 66.625 73.9375 C68.605 74.2675 70.585 74.5975 72.625 74.9375 C72.625 75.5975 72.625 76.2575 72.625 76.9375 C73.1921875 77.05480469 73.759375 77.17210937 74.34375 77.29296875 C76.83697777 77.99739098 78.84492461 79.02255941 81.125 80.25 C86.75731477 83.14181535 92.58507481 85.07985978 98.625 86.9375 C98.625 87.9275 98.625 88.9175 98.625 89.9375 C85.77500291 90.39642847 71.98398001 88.51981305 59.625 84.9375 C58.965 84.2775 58.305 83.6175 57.625 82.9375 C55.61880073 82.16898464 53.59483674 81.4464616 51.5625 80.75 C45.96900923 78.6787961 41.81644851 76.19499416 37.33203125 72.29296875 C35.72724391 70.73021673 35.72724391 70.73021673 33.625 70.9375 C33.955 72.2575 34.285 73.5775 34.625 74.9375 C28.27088529 75.42627805 28.27088529 75.42627805 25.3125 73.1875 C23.625 70.9375 23.625 70.9375 22.6875 68.8125 C21.20265309 66.19218192 19.4193455 65.81992489 16.625 64.9375 C16.625 63.9475 16.625 62.9575 16.625 61.9375 C15.965 61.9375 15.305 61.9375 14.625 61.9375 C13.965 60.2875 13.305 58.6375 12.625 56.9375 C11.965 56.9375 11.305 56.9375 10.625 56.9375 C7.625 50.3125 7.625 50.3125 7.625 46.9375 C6.635 46.9375 5.645 46.9375 4.625 46.9375 C3.27060332 44.22870665 3.55998549 41.92816732 3.625 38.9375 C2.965 38.9375 2.305 38.9375 1.625 38.9375 C1.625 37.2875 1.625 35.6375 1.625 33.9375 C0.305 33.9375 -1.015 33.9375 -2.375 33.9375 C-5.68403248 24.35016928 -9.26616181 12.55508284 -5.4765625 2.5703125 C-3.86682176 0.18424289 -2.85500032 -0.07513159 0 0 Z " fill="#ED5821" transform="translate(13.375,153.0625)"/>
<path d="M0 0 C4.49527749 3.62961195 8.78179391 7.17269086 12 12 C8.67406507 13.10864498 8.01539269 12.86137757 4.8125 11.875 C-0.19737189 10.66543876 -3.57773638 11.42120927 -8 14 C-10.21750908 15.5392464 -10.21750908 15.5392464 -11 18 C-10.9256106 20.76834832 -10.50272513 23.25786295 -10 26 C-10.66 25.67 -11.32 25.34 -12 25 C-12.6328125 22.93359375 -12.6328125 22.93359375 -13.125 20.4375 C-13.29257813 19.61121094 -13.46015625 18.78492187 -13.6328125 17.93359375 C-13.75398438 17.29550781 -13.87515625 16.65742187 -14 16 C-18.26991361 20.04518132 -20.7495225 22.46609969 -21.3359375 28.3984375 C-21.43011317 37.98552069 -20.04714931 45.83782316 -17 55 C-16.28008373 57.45496628 -15.57160384 59.91331725 -14.875 62.375 C-14.56304687 63.45523438 -14.25109375 64.53546875 -13.9296875 65.6484375 C-13.62289062 66.75445312 -13.31609375 67.86046875 -13 69 C-12.81832275 69.62414795 -12.63664551 70.2482959 -12.44946289 70.89135742 C-11.08824056 75.83634224 -10.66433844 80.44379455 -10.6875 85.5625 C-10.67138672 86.27857422 -10.65527344 86.99464844 -10.63867188 87.73242188 C-10.63400171 92.86492853 -11.71221102 96.40631288 -14 101 C-14.99 101 -15.98 101 -17 101 C-17.99 98.03 -17.99 98.03 -19 95 C-19.12375 95.53625 -19.2475 96.0725 -19.375 96.625 C-20.13023326 99.4948864 -20.89640484 102.2410121 -22 105 C-23.485 105.495 -23.485 105.495 -25 106 C-24.7834375 105.41476563 -24.566875 104.82953125 -24.34375 104.2265625 C-18.48808441 86.17159361 -22.66244179 70.27591905 -31 53.875 C-31.51542358 52.88040771 -31.51542358 52.88040771 -32.04125977 51.86572266 C-39.27255501 37.87844475 -44.43231139 22.48651213 -40.09375 6.703125 C-37.09750152 0.36490705 -33.33500694 -3.53259694 -26.875 -6.375 C-16.56798208 -8.03742224 -8.50484116 -5.97938614 0 0 Z " fill="#B11D1E" transform="translate(168,59)"/>
<path d="M0 0 C0.99 0 1.98 0 3 0 C3 1.65 3 3.3 3 5 C3.66 5 4.32 5 5 5 C5.33 7.64 5.66 10.28 6 13 C6.99 13 7.98 13 9 13 C12 19.625 12 19.625 12 23 C12.99 22.67 13.98 22.34 15 22 C15.33 23.98 15.66 25.96 16 28 C16.66 28 17.32 28 18 28 C18.33 28.99 18.66 29.98 19 31 C19.763125 31.268125 20.52625 31.53625 21.3125 31.8125 C24.91681889 33.40510602 26.01867646 35.67420692 28 39 C29.12534105 40.35618499 29.12534105 40.35618499 32.0625 40.0625 C33.031875 40.041875 34.00125 40.02125 35 40 C34.505 38.02 34.505 38.02 34 36 C38.00809922 36.52792988 39.97072913 37.54759485 42.9375 40.25 C48.66333408 44.95682971 54.9956516 46.83791806 62 49 C62 49.33 62 49.66 62 50 C71.85237686 52.19054915 81.58901661 54.25250814 91.6875 54.8125 C92.41122803 54.8530249 93.13495605 54.8935498 93.88061523 54.93530273 C95.58571085 55.00689309 97.29343573 55.01070617 99 55 C99.33 54.67 99.66 54.34 100 54 C98.35 53.34 96.7 52.68 95 52 C95 51.67 95 51.34 95 51 C95.80107178 51.04600342 96.60214355 51.09200684 97.42749023 51.1394043 C101.09676568 51.33997051 104.76685267 51.51392534 108.4375 51.6875 C110.32758789 51.79674805 110.32758789 51.79674805 112.25585938 51.90820312 C119.54613174 52.23179224 125.32446605 52.00989603 132 49 C133.02613403 48.56796265 133.02613403 48.56796265 134.07299805 48.12719727 C136.78168703 46.96853204 139.4575909 45.74269387 142.13671875 44.51757812 C146.36963775 42.6164922 150.50803092 41.17257894 155 40 C155 39.34 155 38.68 155 38 C155.99 38 156.98 38 158 38 C158.2578125 37.40960938 158.515625 36.81921875 158.78125 36.2109375 C160.09427365 33.82897792 161.48920852 32.43982451 163.5 30.625 C166.58464987 27.65578401 168.06332336 25.26708246 169 21 C169.99 21 170.98 21 172 21 C171.67 19.68 171.34 18.36 171 17 C172.32 17 173.64 17 175 17 C173.53346217 21.32748868 171.22907112 24.68854072 168.4375 28.25 C167.76714722 29.10706543 167.76714722 29.10706543 167.08325195 29.98144531 C151.78333328 49.24099268 130.87097466 61.22141528 106.78515625 65.58203125 C80.18891932 68.51887062 53.57972375 63.82409555 32.13671875 47.05078125 C17.73126433 35.28861224 6.78293947 20.38257881 0 3 C0 2.01 0 1.02 0 0 Z " fill="#CE2923" transform="translate(12,187)"/>
<path d="M0 0 C3.04001502 1.25177089 4.28203834 3.20588311 6.125 5.875 C9.41222617 15.73667852 6.95371706 28.82945694 2.64453125 38.0390625 C2.14308594 38.97492187 1.64164063 39.91078125 1.125 40.875 C0.84382324 41.5673877 0.56264648 42.25977539 0.27294922 42.97314453 C-0.875 44.875 -0.875 44.875 -2.64331055 45.69628906 C-3.34238525 45.84291992 -4.04145996 45.98955078 -4.76171875 46.140625 C-5.9228418 46.39199219 -5.9228418 46.39199219 -7.10742188 46.6484375 C-7.91759766 46.80570313 -8.72777344 46.96296875 -9.5625 47.125 C-10.35333984 47.29773437 -11.14417969 47.47046875 -11.95898438 47.6484375 C-19.17504616 49.15004573 -25.40390706 50.08873493 -31.875 45.875 C-33.25 43.6875 -33.25 43.6875 -33.875 41.875 C-28.7165251 37.55303454 -25.61880444 36.54868688 -18.875 36.875 C-15.84466122 37.4290365 -12.86032911 38.11682118 -9.875 38.875 C-12.32575937 36.14555896 -15.03002207 34.52608673 -18.1875 32.6875 C-23.23632902 29.50687164 -27.26307093 26.34506457 -29.875 20.875 C-30.3125 16.9375 -30.3125 16.9375 -29.875 13.875 C-28.875 12.875 -28.875 12.875 -25.6875 12.5625 C-18.22879315 13.17386941 -14.3493952 18.237291 -9.7109375 23.61328125 C-7.55351855 26.27103779 -5.66795222 28.96145264 -3.875 31.875 C-4.18682069 30.45818366 -4.49948737 29.04155349 -4.8125 27.625 C-4.98652344 26.83609375 -5.16054687 26.0471875 -5.33984375 25.234375 C-5.66356071 23.80718489 -6.01724135 22.38573009 -6.42578125 20.98046875 C-7.03710435 18.11522397 -7.0843834 15.36527998 -7.125 12.4375 C-7.15078125 11.32503906 -7.1765625 10.21257813 -7.203125 9.06640625 C-6.84003509 5.53492467 -5.98586914 3.6980313 -3.875 0.875 C-1.875 -0.125 -1.875 -0.125 0 0 Z M-1.875 35.875 C-0.875 38.875 -0.875 38.875 -0.875 38.875 Z " fill="#A71E12" transform="translate(133.875,13.125)"/>
<path d="M0 0 C3.74810209 3.57439326 6.93427738 7.33526252 9.9375 11.5625 C10.36844971 12.16803711 10.79939941 12.77357422 11.2434082 13.39746094 C15.0834658 18.91264386 18.65416794 24.67368367 21 31 C20.67 31.66 20.34 32.32 20 33 C18.515 32.01 18.515 32.01 17 31 C17 29.68 17 28.36 17 27 C16.01 27 15.02 27 14 27 C13.01 24.36 12.02 21.72 11 19 C11.04640625 20.39992187 11.0928125 21.79984375 11.140625 23.2421875 C11.48819793 37.95390555 10.39619365 47.85145023 0 59 C-3.58129176 62 -3.58129176 62 -6 62 C-6 62.66 -6 63.32 -6 64 C-7.72850345 64.79311367 -9.45783354 65.5844259 -11.1875 66.375 C-12.15042969 66.81585938 -13.11335938 67.25671875 -14.10546875 67.7109375 C-27.97805804 73.8890137 -42.80126855 72.62218866 -57.5625 70.6875 C-58.4901416 70.56987305 -59.4177832 70.45224609 -60.37353516 70.33105469 C-65.70871646 69.5745521 -70.21713706 68.52499546 -75 66 C-76.69618829 63.05010733 -77 61.40117798 -77 58 C-76.5153125 58.47050781 -76.030625 58.94101563 -75.53125 59.42578125 C-67.47997366 66.90417831 -61.38007335 68.58762997 -50.3515625 68.36328125 C-45.69108091 67.85812416 -42.9497001 66.48684821 -39 64 C-38.29359375 63.66742188 -37.5871875 63.33484375 -36.859375 62.9921875 C-34.47917635 61.7220815 -34.06182896 60.42703761 -33 58 C-32.34 57.34 -31.68 56.68 -31 56 C-30.67 56.33 -30.34 56.66 -30 57 C-19.53190192 56.5490245 -9.86430649 54.71980612 -2.09765625 47.14453125 C4.88994653 38.58514496 6.08288874 28.71733769 5.28515625 17.97607422 C4.6846573 13.8147399 2.96591796 10.17665906 1.09375 6.453125 C0 4 0 4 0 0 Z " fill="#BD2823" transform="translate(174,109)"/>
<path d="M0 0 C0.66 0 1.32 0 2 0 C2 7 2 14 2 21 C3.64633943 23.0167658 5.31267723 25.01739574 7 27 C7 27.66 7 28.32 7 29 C5.68 29 4.36 29 3 29 C-1.41033695 44.43617932 0.34943007 60.75755417 7.71875 74.9765625 C8.91615567 77.04683182 8.91615567 77.04683182 10.65625 78.5859375 C12 80 12 80 12 83 C13.485 83.495 13.485 83.495 15 84 C15 84.66 15 85.32 15 86 C15.515625 86.226875 16.03125 86.45375 16.5625 86.6875 C18.69758003 87.83715848 20.49539076 89.06249993 22.4375 90.5 C25.17775115 92.50203694 27.75615092 93.91871697 31 95 C25.79510961 96.85461612 21.74552511 94.19700237 17 92 C10.18756221 88.69858784 5.49028458 84.0338199 1 78 C0.39671875 77.18982422 0.39671875 77.18982422 -0.21875 76.36328125 C-7.86161393 65.24850657 -9.17789865 52.11886501 -9.125 39 C-9.12886719 38.0409375 -9.13273437 37.081875 -9.13671875 36.09375 C-9.12716951 29.14190453 -8.96326788 22.64510949 -6.125 16.1875 C-4.29057816 11.83825257 -2.88218919 7.47756016 -1.61328125 2.93359375 C-1 1 -1 1 0 0 Z " fill="#E15A16" transform="translate(89,138)"/>
<path d="M0 0 C5.74035199 1.48396096 11.22822143 4.01429212 15.2109375 8.52734375 C15.92578125 11.22265625 15.92578125 11.22265625 16.2109375 13.52734375 C15.65220947 13.53668945 15.09348145 13.54603516 14.51782227 13.55566406 C11.93553427 13.61003363 9.35493152 13.69354084 6.7734375 13.77734375 C5.45569336 13.79861328 5.45569336 13.79861328 4.11132812 13.8203125 C-3.22779138 14.09112872 -9.77646673 15.59402681 -15.1640625 20.83984375 C-18.16095795 25.79624777 -20.00132604 31.04495194 -21.7890625 36.52734375 C-22.44317935 38.1989757 -23.10559568 39.86749577 -23.7890625 41.52734375 C-24.7790625 41.19734375 -25.7690625 40.86734375 -26.7890625 40.52734375 C-29.06367623 29.07303887 -30.45253065 18.5198044 -25.7890625 7.52734375 C-24.4690625 7.52734375 -23.1490625 7.52734375 -21.7890625 7.52734375 C-21.7271875 6.94984375 -21.6653125 6.37234375 -21.6015625 5.77734375 C-18.36216342 -3.19329984 -7.51916096 -1.27425557 0 0 Z " fill="#C1161E" transform="translate(157.7890625,54.47265625)"/>
<path d="M0 0 C1.03253906 0.00676758 1.03253906 0.00676758 2.0859375 0.01367188 C3.76566335 0.02533664 5.44534375 0.04326729 7.125 0.0625 C7.39054687 0.70703125 7.65609375 1.3515625 7.9296875 2.015625 C8.32414062 2.69109375 8.71859375 3.3665625 9.125 4.0625 C12.18408413 4.87834568 12.18408413 4.87834568 15.125 5.0625 C15.62 7.0425 15.62 7.0425 16.125 9.0625 C15.56627197 9.0718457 15.00754395 9.08119141 14.43188477 9.09082031 C11.84959677 9.14518988 9.26899402 9.22869709 6.6875 9.3125 C5.36975586 9.33376953 5.36975586 9.33376953 4.02539062 9.35546875 C-3.31372888 9.62628497 -9.86240423 11.12918306 -15.25 16.375 C-18.06961 21.03820115 -20.05634646 25.65938665 -20.875 31.0625 C-21.535 31.0625 -22.195 31.0625 -22.875 31.0625 C-24.45034399 27.00255308 -23.38661586 23.17935028 -22.5625 19.0625 C-22.36624023 17.99515625 -22.36624023 17.99515625 -22.16601562 16.90625 C-21.47940355 13.35046184 -20.73968658 10.18931068 -18.875 7.0625 C-18.215 7.0625 -17.555 7.0625 -16.875 7.0625 C-16.545 6.0725 -16.215 5.0825 -15.875 4.0625 C-15.215 4.0625 -14.555 4.0625 -13.875 4.0625 C-13.875 3.0725 -13.875 2.0825 -13.875 1.0625 C-9.21962644 0.14157719 -4.72814567 -0.05955997 0 0 Z " fill="#D21D28" transform="translate(157.875,58.9375)"/>
<path d="M0 0 C7.39243366 0.60593719 11.43560667 5.64383146 16.04296875 11 C19.33541728 15.3027142 20.8125 18.79614341 20.8125 24.3125 C21.8025 24.6425 22.7925 24.9725 23.8125 25.3125 C23.8125 25.9725 23.8125 26.6325 23.8125 27.3125 C13.62824525 24.36442626 3.57233241 19.08199383 -3.25 10.8125 C-4.48172615 7.52789694 -4.45483759 4.78788866 -4.1875 1.3125 C-3.1875 0.3125 -3.1875 0.3125 0 0 Z " fill="#CC5126" transform="translate(108.1875,25.6875)"/>
<path d="M0 0 C3.74810209 3.57439326 6.93427738 7.33526252 9.9375 11.5625 C10.58392456 12.47080566 10.58392456 12.47080566 11.2434082 13.39746094 C15.0834658 18.91264386 18.65416794 24.67368367 21 31 C20.67 31.66 20.34 32.32 20 33 C19.01 32.34 18.02 31.68 17 31 C17 29.68 17 28.36 17 27 C16.01 27 15.02 27 14 27 C13.01 24.36 12.02 21.72 11 19 C11.04640625 20.39992187 11.0928125 21.79984375 11.140625 23.2421875 C11.63422371 44.30239918 11.63422371 44.30239918 5.62109375 51.6953125 C4.25 53.125 4.25 53.125 2 55 C2.66666667 51.66666667 3.33333333 48.33333333 4 45 C3.34 45 2.68 45 2 45 C2.40916885 41.59025956 2.82869696 38.46827241 4.01171875 35.234375 C7.02889108 25.35999284 5.65006327 15.51512584 1.09375 6.453125 C0 4 0 4 0 0 Z " fill="#A61B16" transform="translate(174,109)"/>
<path d="M0 0 C1.32 0 2.64 0 4 0 C2.53346217 4.32748868 0.22907112 7.68854072 -2.5625 11.25 C-3.00940186 11.82137695 -3.45630371 12.39275391 -3.91674805 12.98144531 C-16.09868827 28.31607942 -33.62378176 41.40023355 -53 46 C-55.4375 45.625 -55.4375 45.625 -57 45 C-54.93243723 42.2027092 -53.85559629 41.97307727 -50.3125 41.3125 C-48.6728125 41.1578125 -48.6728125 41.1578125 -47 41 C-47 40.01 -47 39.02 -47 38 C-49.64 38 -52.28 38 -55 38 C-52.34944042 36.23296028 -50.5449015 35.41558269 -47.5703125 34.484375 C-46.69802002 34.20537354 -45.82572754 33.92637207 -44.92700195 33.63891602 C-44.00234131 33.34557373 -43.07768066 33.05223145 -42.125 32.75 C-34.56497862 30.30466295 -27.42353022 27.60468492 -20.30078125 24.06640625 C-18 23 -18 23 -16 23 C-16 22.34 -16 21.68 -16 21 C-15.01 21 -14.02 21 -13 21 C-12.7421875 20.40960938 -12.484375 19.81921875 -12.21875 19.2109375 C-10.90572635 16.82897792 -9.51079148 15.43982451 -7.5 13.625 C-4.41535013 10.65578401 -2.93667664 8.26708246 -2 4 C-1.01 4 -0.02 4 1 4 C0.505 2.02 0.505 2.02 0 0 Z " fill="#CF1B1C" transform="translate(183,204)"/>
<path d="M0 0 C0.81017578 0.71736328 0.81017578 0.71736328 1.63671875 1.44921875 C0.78207031 1.29066406 -0.07257813 1.13210937 -0.953125 0.96875 C-4.31257861 0.45694321 -7.52965988 0.21290093 -10.92578125 0.13671875 C-12.56740234 0.08064453 -12.56740234 0.08064453 -14.2421875 0.0234375 C-18.0693495 0.54554095 -19.66185613 1.73802356 -22.36328125 4.44921875 C-22.69328125 5.43921875 -23.02328125 6.42921875 -23.36328125 7.44921875 C-24.68328125 7.44921875 -26.00328125 7.44921875 -27.36328125 7.44921875 C-27.50765625 8.74859375 -27.65203125 10.04796875 -27.80078125 11.38671875 C-28.23828125 15.32421875 -28.23828125 15.32421875 -29.36328125 16.44921875 C-29.94518659 24.41996864 -29.48845056 32.72252294 -27.36328125 40.44921875 C-26.70328125 40.77921875 -26.04328125 41.10921875 -25.36328125 41.44921875 C-25.03328125 39.79921875 -24.70328125 38.14921875 -24.36328125 36.44921875 C-24.03328125 36.44921875 -23.70328125 36.44921875 -23.36328125 36.44921875 C-23.24210938 37.54621094 -23.1209375 38.64320312 -22.99609375 39.7734375 C-22.82718762 41.22790698 -22.65789644 42.68233179 -22.48828125 44.13671875 C-22.40964844 44.85794922 -22.33101562 45.57917969 -22.25 46.32226562 C-21.76988699 50.36629447 -20.97974435 53.67973548 -19.36328125 57.44921875 C-19.36328125 58.43921875 -19.36328125 59.42921875 -19.36328125 60.44921875 C-18.70328125 60.44921875 -18.04328125 60.44921875 -17.36328125 60.44921875 C-16.82986941 62.0283589 -16.31202362 63.61276262 -15.80078125 65.19921875 C-15.51074219 66.0809375 -15.22070312 66.96265625 -14.921875 67.87109375 C-14.3463069 70.52756191 -14.47079754 71.91952981 -15.36328125 74.44921875 C-15.87375 73.1034375 -15.87375 73.1034375 -16.39453125 71.73046875 C-19.12090131 64.67212521 -22.07974071 57.86266328 -25.55078125 51.13671875 C-31.90794419 38.57269096 -35.37160462 25.22261612 -31.44921875 11.17578125 C-28.48925898 4.81664187 -24.69552576 0.91540634 -18.23828125 -1.92578125 C-12.31070955 -2.8818412 -5.19028418 -3.4058559 0 0 Z " fill="#78171C" transform="translate(159.36328125,54.55078125)"/>
<path d="M0 0 C0 0.66 0 1.32 0 2 C1.051875 2.12375 2.10375 2.2475 3.1875 2.375 C6.45958771 2.91140782 9.00536076 3.63880035 12 5 C6.33453576 9.92109668 -1.68056754 10.68386358 -8.9375 11.375 C-12.5718036 10.92998323 -14.93371448 9.99665104 -18 8 C-19.375 5.8125 -19.375 5.8125 -20 4 C-13.55937192 -1.39620191 -8.16446759 -1.97926487 0 0 Z " fill="#A43827" transform="translate(120,51)"/>
<path d="M0 0 C1.9375 0.75 1.9375 0.75 4 2 C4.36162029 3.32594105 4.69728039 4.65938457 5 6 C5.99 6.33 6.98 6.66 8 7 C9.6484375 8.70703125 9.6484375 8.70703125 11.375 10.8125 C14.03319121 13.95297907 16.69718768 16.52289076 20 19 C21.0173873 19.98230498 22.02596117 20.97469597 23 22 C21.68 22 20.36 22 19 22 C19.33 23.32 19.66 24.64 20 26 C13.64588529 26.48877805 13.64588529 26.48877805 10.6875 24.25 C9 22 9 22 8.0625 19.875 C6.57765309 17.25468192 4.7943455 16.88242489 2 16 C2 15.01 2 14.02 2 13 C1.34 13 0.68 13 0 13 C-0.66 11.35 -1.32 9.7 -2 8 C-2.66 8 -3.32 8 -4 8 C-4 7.34 -4 6.68 -4 6 C-3.34 6 -2.68 6 -2 6 C-1.7834375 5.071875 -1.7834375 5.071875 -1.5625 4.125 C-1 2 -1 2 0 0 Z " fill="#DD4E21" transform="translate(28,202)"/>
<path d="M0 0 C0.66 0.99 1.32 1.98 2 3 C1.16130925 6.91389016 0.22640104 9.66039844 -2 13 C-2.66 13 -3.32 13 -4 13 C-3.67 16.3 -3.34 19.6 -3 23 C-3.66 23 -4.32 23 -5 23 C-5.0872253 27.39570794 -5.14046869 31.79119271 -5.1875 36.1875 C-5.21263672 37.43337891 -5.23777344 38.67925781 -5.26367188 39.96289062 C-5.27333984 41.16494141 -5.28300781 42.36699219 -5.29296875 43.60546875 C-5.3086792 44.71043701 -5.32438965 45.81540527 -5.34057617 46.95385742 C-4.95746148 50.38046818 -3.87705618 52.15414064 -2 55 C-1.48828125 58.11328125 -1.48828125 58.11328125 -1.3125 61.3125 C-1.21388672 62.91544922 -1.21388672 62.91544922 -1.11328125 64.55078125 C-1.07589844 65.35902344 -1.03851562 66.16726562 -1 67 C-6.8997555 61.41075795 -6.8997555 61.41075795 -8 58 C-7.82855469 57.41089844 -7.65710938 56.82179687 -7.48046875 56.21484375 C-6.87137032 53.40704853 -7.34908192 51.43248496 -7.9375 48.625 C-10.86012512 32.11016627 -8.43826268 16.0370634 -1 1 C-0.67 0.67 -0.34 0.34 0 0 Z " fill="#682213" transform="translate(25,98)"/>
<path d="M0 0 C3 2 3 2 4.1875 5.75 C6.14169589 15.98079027 6.98289086 31.02566371 1 40 C0.505 35.05 0.505 35.05 0 30 C-0.61875 31.32 -1.2375 32.64 -1.875 34 C-5.48186515 40.54196459 -11.94029328 46.31408247 -19 49 C-19.99 48.67 -20.98 48.34 -22 48 C-19 46 -19 46 -16 46 C-16 45.34 -16 44.68 -16 44 C-14.453125 42.9790625 -14.453125 42.9790625 -12.875 41.9375 C-6.19685437 37.34120544 -1.94812742 29.79657843 0 22 C0.3366903 18.15513564 0.28616664 14.35558851 0.1875 10.5 C0.17396484 9.48679688 0.16042969 8.47359375 0.14648438 7.4296875 C0.11143063 4.95255596 0.06229764 2.47657073 0 0 Z " fill="#DD3425" transform="translate(184,127)"/>
<path d="M0 0 C3.12852854 1.28821763 4.28100967 3.06310603 6.125 5.875 C6.515625 9.20703125 6.515625 9.20703125 6.375 12.6875 C6.33890625 13.84894531 6.3028125 15.01039062 6.265625 16.20703125 C6.19601563 17.52767578 6.19601563 17.52767578 6.125 18.875 C5.52171875 18.38386719 4.9184375 17.89273437 4.296875 17.38671875 C1.69063858 15.5726657 0.23203629 15.61608031 -2.875 15.875 C-3.205 16.865 -3.535 17.855 -3.875 18.875 C-6.67936238 14.66845643 -6.39572358 10.6539636 -5.4921875 5.83203125 C-5 3.9375 -5 3.9375 -3.875 0.875 C-1.875 -0.125 -1.875 -0.125 0 0 Z " fill="#F27125" transform="translate(133.875,13.125)"/>
<path d="M0 0 C1.03253906 0.00676758 1.03253906 0.00676758 2.0859375 0.01367188 C3.76566335 0.02533664 5.44534375 0.04326729 7.125 0.0625 C7.53878906 1.02929688 7.53878906 1.02929688 7.9609375 2.015625 C8.97257889 4.35020472 8.97257889 4.35020472 11.75 4.8125 C12.53375 4.895 13.3175 4.9775 14.125 5.0625 C14.125 6.0525 14.125 7.0425 14.125 8.0625 C6.205 8.0625 -1.715 8.0625 -9.875 8.0625 C-9.875 7.0725 -9.875 6.0825 -9.875 5.0625 C-10.535 5.0625 -11.195 5.0625 -11.875 5.0625 C-11.875 5.7225 -11.875 6.3825 -11.875 7.0625 C-12.535 7.0625 -13.195 7.0625 -13.875 7.0625 C-13.875 5.0825 -13.875 3.1025 -13.875 1.0625 C-9.21962644 0.14157719 -4.72814567 -0.05955997 0 0 Z " fill="#DE1C27" transform="translate(157.875,58.9375)"/>
<path d="M0 0 C6.06119767 1.56690404 10.50058654 4.46170563 15.2109375 8.52734375 C13.4609375 9.27734375 13.4609375 9.27734375 11.2109375 9.52734375 C10.69015625 8.893125 10.169375 8.25890625 9.6328125 7.60546875 C5.72195231 4.2496984 1.42724562 5.10540765 -3.5390625 5.27734375 C-4.52261719 5.29539062 -5.50617188 5.3134375 -6.51953125 5.33203125 C-8.94370033 5.37910249 -11.36588309 5.44483633 -13.7890625 5.52734375 C-13.7890625 6.18734375 -13.7890625 6.84734375 -13.7890625 7.52734375 C-14.7378125 7.50671875 -15.6865625 7.48609375 -16.6640625 7.46484375 C-19.69572533 7.30182549 -19.69572533 7.30182549 -21.7890625 8.52734375 C-21.50814347 5.15631539 -21.06445564 3.80025139 -18.625 1.3828125 C-13.10403036 -2.22939215 -6.28631551 -1.06532798 0 0 Z " fill="#BC1217" transform="translate(157.7890625,54.47265625)"/>
<path d="M0 0 C0.66 0.33 1.32 0.66 2 1 C-8.07006657 7.6419588 -18.66554076 14.13945633 -31 15 C-30 12 -30 12 -27.6875 10.8125 C-25 10 -25 10 -21 10 C-21 9.01 -21 8.02 -21 7 C-21.66 6.67 -22.32 6.34 -23 6 C-21.68 6 -20.36 6 -19 6 C-19 5.34 -19 4.68 -19 4 C-17.948125 3.87625 -16.89625 3.7525 -15.8125 3.625 C-12.54041229 3.08859218 -9.99463924 2.36119965 -7 1 C-7 1.99 -7 2.98 -7 4 C-6.34 4 -5.68 4 -5 4 C-5 3.34 -5 2.68 -5 2 C-2.625 0.9375 -2.625 0.9375 0 0 Z " fill="#C01227" transform="translate(157,235)"/>
<path d="M0 0 C0.47308594 0.38671875 0.94617188 0.7734375 1.43359375 1.171875 C11.11842146 8.7989128 18.57447525 10.96215347 31 10 C34.70848522 9.48878358 38.35099609 8.83405804 42 8 C41.34 9.32 40.68 10.64 40 12 C43.04386724 12.08226668 45.07175348 11.97608217 48 11 C49.72795352 10.93197033 51.45835365 10.91504355 53.1875 10.9375 C54.08855469 10.94652344 54.98960937 10.95554688 55.91796875 10.96484375 C56.60503906 10.97644531 57.29210937 10.98804688 58 11 C53.61735921 15.38264079 44.70870302 14.23936239 38.85131836 14.25561523 C32.66132179 14.16012334 26.57185487 13.49150249 20.4375 12.6875 C19.0460376 12.51105957 19.0460376 12.51105957 17.62646484 12.33105469 C12.29208589 11.57466587 7.78105476 10.52740179 3 8 C1.625 5.5 1.625 5.5 1 3 C0.67 2.01 0.34 1.02 0 0 Z " fill="#CC3226" transform="translate(96,167)"/>
<path d="M0 0 C0.99 0 1.98 0 3 0 C3 1.65 3 3.3 3 5 C3.66 5 4.32 5 5 5 C5.33 7.64 5.66 10.28 6 13 C6.99 13 7.98 13 9 13 C12 19.625 12 19.625 12 23 C12.99 22.67 13.98 22.34 15 22 C15.33 23.98 15.66 25.96 16 28 C16.66 28 17.32 28 18 28 C18.33 28.99 18.66 29.98 19 31 C19.763125 31.268125 20.52625 31.53625 21.3125 31.8125 C24.93062468 33.41120625 25.9648352 35.67589749 28 39 C29.62351109 40.79394446 29.62351109 40.79394446 31 42 C30.67 42.99 30.34 43.98 30 45 C16.45447585 34.17012441 6.28999849 19.11932336 0 3 C0 2.01 0 1.02 0 0 Z " fill="#9A3D22" transform="translate(12,187)"/>
<path d="M0 0 C2.31 1.98 4.62 3.96 7 6 C6.67 6.66 6.34 7.32 6 8 C5.29875 7.82082031 4.5975 7.64164062 3.875 7.45703125 C-2.87366722 5.94408276 -6.8433994 5.70182111 -13 9 C-15.21750908 10.5392464 -15.21750908 10.5392464 -16 13 C-15.9256106 15.76834832 -15.50272513 18.25786295 -15 21 C-15.66 20.67 -16.32 20.34 -17 20 C-17.6328125 17.49609375 -17.6328125 17.49609375 -18.125 14.4375 C-18.29257813 13.42558594 -18.46015625 12.41367188 -18.6328125 11.37109375 C-18.75398437 10.58863281 -18.87515625 9.80617188 -19 9 C-19.99 8.67 -20.98 8.34 -22 8 C-22.33 8.66 -22.66 9.32 -23 10 C-23 9.34 -23 8.68 -23 8 C-23.99 7.67 -24.98 7.34 -26 7 C-20.04648507 3.8884922 -15.21115854 3.6258206 -8.5625 3.8125 C-7.64017578 3.82603516 -6.71785156 3.83957031 -5.76757812 3.85351562 C-3.51109617 3.88859047 -1.25586774 3.93773613 1 4 C0.67 2.68 0.34 1.36 0 0 Z " fill="#91181B" transform="translate(173,64)"/>
<path d="M0 0 C0.33 0.66 0.66 1.32 1 2 C1.66 2 2.32 2 3 2 C3.185625 3.2065625 3.185625 3.2065625 3.375 4.4375 C3.58125 5.283125 3.7875 6.12875 4 7 C4.66 7.33 5.32 7.66 6 8 C6.33 6.35 6.66 4.7 7 3 C7.33 3 7.66 3 8 3 C8.12117187 4.09699219 8.24234375 5.19398437 8.3671875 6.32421875 C8.53609363 7.77868823 8.70538481 9.23311304 8.875 10.6875 C8.95363281 11.40873047 9.03226563 12.12996094 9.11328125 12.87304688 C9.59339426 16.91707572 10.3835369 20.23051673 12 24 C12 24.99 12 25.98 12 27 C12.66 27 13.32 27 14 27 C14.53341184 28.57914015 15.05125763 30.16354387 15.5625 31.75 C15.85253906 32.63171875 16.14257812 33.5134375 16.44140625 34.421875 C17.01697435 37.07834316 16.89248371 38.47031106 16 41 C15.48953125 39.65421875 15.48953125 39.65421875 14.96875 38.28125 C11.9441216 30.44924414 8.60148246 22.90329057 4.71679688 15.45703125 C2.02005484 10.24583192 0 5.91554156 0 0 Z " fill="#9D1E27" transform="translate(128,88)"/>
<path d="M0 0 C0.33 0 0.66 0 1 0 C1.55491627 11.22164019 0.37555095 21.99232535 -5 32 C-5.391875 32.78375 -5.78375 33.5675 -6.1875 34.375 C-6.455625 34.91125 -6.72375 35.4475 -7 36 C-8.32 35.67 -9.64 35.34 -11 35 C-10.505 34.505 -10.505 34.505 -10 34 C-14.95 32.515 -14.95 32.515 -20 31 C-18.68 30.67 -17.36 30.34 -16 30 C-16.33 29.01 -16.66 28.02 -17 27 C-16.2575 27.309375 -15.515 27.61875 -14.75 27.9375 C-12.49307824 28.8094925 -10.3549847 29.47667007 -8 30 C-8.99 29.34 -9.98 28.68 -11 28 C-11.6875 24.875 -11.6875 24.875 -12 22 C-11.34 22.33 -10.68 22.66 -10 23 C-9.34 22.34 -8.68 21.68 -8 21 C-7.34 23.31 -6.68 25.62 -6 28 C-5.34 28 -4.68 28 -4 28 C-3.34 22.06 -2.68 16.12 -2 10 C-1.34 10 -0.68 10 0 10 C0 6.7 0 3.4 0 0 Z " fill="#792C1D" transform="translate(140,22)"/>
<path d="M0 0 C3.74810209 3.57439326 6.93427738 7.33526252 9.9375 11.5625 C10.58392456 12.47080566 10.58392456 12.47080566 11.2434082 13.39746094 C15.0834658 18.91264386 18.65416794 24.67368367 21 31 C20.67 31.66 20.34 32.32 20 33 C19.01 32.34 18.02 31.68 17 31 C17 29.68 17 28.36 17 27 C16.01 27 15.02 27 14 27 C13.01 24.36 12.02 21.72 11 19 C10.34 19 9.68 19 9 19 C7.68 16.36 6.36 13.72 5 11 C4.67 12.32 4.34 13.64 4 15 C3.32532438 13.25307205 2.66055844 11.50231475 2 9.75 C1.62875 8.77546875 1.2575 7.8009375 0.875 6.796875 C0 4 0 4 0 0 Z " fill="#A83125" transform="translate(174,109)"/>
<path d="M0 0 C2.8974954 0.43701893 3.82206157 1.13091424 5.859375 3.30859375 C8.89792269 7.53368176 11.14243989 10.96566128 11.875 16.1875 C11.215 15.8575 10.555 15.5275 9.875 15.1875 C9.875 14.5275 9.875 13.8675 9.875 13.1875 C8.946875 13.1875 8.01875 13.1875 7.0625 13.1875 C5 13.1875 2.9375 13.1875 0.875 13.1875 C0.215 10.5475 -0.445 7.9075 -1.125 5.1875 C-2.115 5.8475 -3.105 6.5075 -4.125 7.1875 C-4.16754356 5.18795254 -4.16580783 3.18708364 -4.125 1.1875 C-3.125 0.1875 -3.125 0.1875 0 0 Z " fill="#F47820" transform="translate(13.125,154.8125)"/>
<path d="M0 0 C2.66796875 0.37109375 2.66796875 0.37109375 4.6171875 2.5234375 C5.19082031 3.44253906 5.76445313 4.36164062 6.35546875 5.30859375 C8.44617598 8.95435721 8.44617598 8.95435721 11.66796875 11.37109375 C11.66796875 12.69109375 11.66796875 14.01109375 11.66796875 15.37109375 C12.65796875 15.70109375 13.64796875 16.03109375 14.66796875 16.37109375 C14.66796875 17.03109375 14.66796875 17.69109375 14.66796875 18.37109375 C10.27113387 17.17195697 7.56955941 15.94228225 4.66796875 12.37109375 C4.66796875 11.71109375 4.66796875 11.05109375 4.66796875 10.37109375 C3.01796875 10.37109375 1.36796875 10.37109375 -0.33203125 10.37109375 C-0.66203125 9.38109375 -0.99203125 8.39109375 -1.33203125 7.37109375 C-0.34203125 7.37109375 0.64796875 7.37109375 1.66796875 7.37109375 C1.33796875 6.71109375 1.00796875 6.05109375 0.66796875 5.37109375 C-0.65203125 5.70109375 -1.97203125 6.03109375 -3.33203125 6.37109375 C-3.37475225 4.7049747 -3.37266957 3.0372649 -3.33203125 1.37109375 C-2.33203125 0.37109375 -2.33203125 0.37109375 0 0 Z " fill="#ED3926" transform="translate(117.33203125,34.62890625)"/>
<path d="M0 0 C3.62564187 0.10954408 7.25021431 0.2402496 10.875 0.375 C11.90753906 0.4059375 12.94007812 0.436875 14.00390625 0.46875 C14.99003906 0.50742188 15.97617188 0.54609375 16.9921875 0.5859375 C17.90339355 0.6173584 18.81459961 0.6487793 19.75341797 0.68115234 C22 1 22 1 24 3 C23.33613281 3.12117187 22.67226562 3.24234375 21.98828125 3.3671875 C21.10527344 3.53476563 20.22226563 3.70234375 19.3125 3.875 C18.00732422 4.11863281 18.00732422 4.11863281 16.67578125 4.3671875 C14.01251814 4.89066514 14.01251814 4.89066514 11.80078125 6.08984375 C7.48644333 7.49185314 3.35877431 6.98663272 -1.125 6.6875 C-2.03121094 6.63916016 -2.93742187 6.59082031 -3.87109375 6.54101562 C-10.54935984 6.15021339 -10.54935984 6.15021339 -14 5 C-13.67 4.34 -13.34 3.68 -13 3 C-11.78441406 3.08378906 -10.56882812 3.16757813 -9.31640625 3.25390625 C-7.73178879 3.35704703 -6.14715235 3.45989661 -4.5625 3.5625 C-3.76005859 3.61857422 -2.95761719 3.67464844 -2.13085938 3.73242188 C-0.08937889 3.8616295 1.95546369 3.9351273 4 4 C4.33 3.67 4.66 3.34 5 3 C3.35 2.34 1.7 1.68 0 1 C0 0.67 0 0.34 0 0 Z " fill="#E22226" transform="translate(107,238)"/>
<path d="M0 0 C2.63276353 2.63276353 2.29844863 3.89509158 2.3125 7.5625 C2.14630166 16.23597575 0.28436087 22.86891622 -6 29 C-8.3125 29.875 -8.3125 29.875 -10 30 C-9.49287967 26.28111761 -8.88391785 23.26545761 -7 20 C-5.68 20 -4.36 20 -3 20 C-3.04125 19.29875 -3.0825 18.5975 -3.125 17.875 C-2.98331668 14.61628372 -2.13265314 12.0440053 -1 9 C-0.34 9 0.32 9 1 9 C0.67 6.03 0.34 3.06 0 0 Z " fill="#BE4F25" transform="translate(116,84)"/>
<path d="M0 0 C0.99386719 0.02707031 1.98773438 0.05414063 3.01171875 0.08203125 C4.15060547 0.13423828 4.15060547 0.13423828 5.3125 0.1875 C4.6525 0.8475 3.9925 1.5075 3.3125 2.1875 C2.66482207 4.75811311 2.66482207 4.75811311 2.3125 7.1875 C3.6325 7.5175 4.9525 7.8475 6.3125 8.1875 C6.3125 8.8475 6.3125 9.5075 6.3125 10.1875 C1.09075222 10.50080487 -2.26441041 10.06765136 -6.6875 7.1875 C-8.0625 5 -8.0625 5 -8.6875 3.1875 C-6.10291354 -0.17334451 -4.11082043 -0.14508778 0 0 Z " fill="#F37527" transform="translate(108.6875,51.8125)"/>
<path d="M0 0 C-0.33 1.32 -0.66 2.64 -1 4 C-3.31 4.33 -5.62 4.66 -8 5 C-8 5.99 -8 6.98 -8 8 C-8 9.65 -8 11.3 -8 13 C-12.95 11.02 -12.95 11.02 -18 9 C-16.09755718 5.48048079 -14.50762717 3.00435838 -11 1 C-7.29283962 0.13236672 -3.79891631 -0.11173283 0 0 Z " fill="#C25B21" transform="translate(87,75)"/>
<path d="M0 0 C0.66 0.99 1.32 1.98 2 3 C1.16130925 6.91389016 0.22640104 9.66039844 -2 13 C-2.66 13 -3.32 13 -4 13 C-3.67 16.3 -3.34 19.6 -3 23 C-3.66 23 -4.32 23 -5 23 C-4.98839844 24.09699219 -4.97679687 25.19398437 -4.96484375 26.32421875 C-4.95546036 27.77864412 -4.94636075 29.23307135 -4.9375 30.6875 C-4.92912109 31.40873047 -4.92074219 32.12996094 -4.91210938 32.87304688 C-4.89456368 36.71555382 -5.06475779 40.26639526 -6 44 C-6.33 44 -6.66 44 -7 44 C-7.26742697 13.66189637 -7.26742697 13.66189637 -1 1 C-0.67 0.67 -0.34 0.34 0 0 Z " fill="#872912" transform="translate(25,98)"/>
<path d="M0 0 C0.66 1.32 1.32 2.64 2 4 C1.44127197 4.0093457 0.88254395 4.01869141 0.30688477 4.02832031 C-2.27540323 4.08268988 -4.85600598 4.16619709 -7.4375 4.25 C-8.75524414 4.27126953 -8.75524414 4.27126953 -10.09960938 4.29296875 C-17.43872888 4.56378497 -23.98740423 6.06668306 -29.375 11.3125 C-32.19461 15.97570115 -34.18134646 20.59688665 -35 26 C-35.66 26 -36.32 26 -37 26 C-36.80632152 18.39371775 -34.97351175 12.80915725 -29.39453125 7.4609375 C-21.8667997 1.56966933 -13.19798696 1.4349808 -4 2 C-2.65685921 2.29131034 -1.31726639 2.60795643 0 3 C0 2.01 0 1.02 0 0 Z " fill="#BF2F35" transform="translate(172,64)"/>
<path d="M0 0 C-1.25 1.5 -1.25 1.5 -3 3 C-4.32 3 -5.64 3 -7 3 C-7 2.34 -7 1.68 -7 1 C-15.63763182 0.55556762 -15.63763182 0.55556762 -24.0625 2.0625 C-27.13601056 3.04340763 -28.04637358 2.90831952 -31 2 C-19.9073909 -3.19588444 -11.58882995 -4.5067672 0 0 Z " fill="#954B1F" transform="translate(109,73)"/>
<path d="M0 0 C0.66 0.33 1.32 0.66 2 1 C4.73627479 10.6031045 3.49082737 22.4518284 1 32 C0.34 32.99 -0.32 33.98 -1 35 C-1.22607056 23.31968789 -0.55736816 11.66322528 0 0 Z " fill="#ED351C" transform="translate(186,132)"/>
<path d="M0 0 C0.33 0 0.66 0 1 0 C1.33178962 4.75565125 0.53711126 7.02886933 -2 11 C-1.67 11.66 -1.34 12.32 -1 13 C-6.94 13.495 -6.94 13.495 -13 14 C-12.67 13.01 -12.34 12.02 -12 11 C-11.34 11 -10.68 11 -10 11 C-9.87625 10.0925 -9.7525 9.185 -9.625 8.25 C-9.07890323 5.41029677 -8.42736197 3.47409409 -7 1 C-6.34 1.33 -5.68 1.66 -5 2 C-5 3.65 -5 5.3 -5 7 C-4.01 7 -3.02 7 -2 7 C-1.34 4.69 -0.68 2.38 0 0 Z " fill="#D82F2B" transform="translate(156,153)"/>
<path d="M0 0 C0 3.87572806 -1.17998738 4.67492078 -3.6875 7.5625 C-7.68534159 12.38405317 -10.47284426 17.28960002 -13 23 C-13.33 23 -13.66 23 -14 23 C-13.67 20.69 -13.34 18.38 -13 16 C-12.34 16 -11.68 16 -11 16 C-11 14.35 -11 12.7 -11 11 C-10.34 11 -9.68 11 -9 11 C-9.33 10.01 -9.66 9.02 -10 8 C-9.01 7.67 -8.02 7.34 -7 7 C-7.66 5.35 -8.32 3.7 -9 2 C-8.2575 2.04125 -7.515 2.0825 -6.75 2.125 C-3.91241048 1.99601866 -2.41226062 1.42948778 0 0 Z " fill="#A2431F" transform="translate(108,113)"/>
<path d="M0 0 C1.32 0 2.64 0 4 0 C2.53321412 4.32822064 0.22736302 7.68670437 -2.5625 11.25 C-2.99997559 11.81485107 -3.43745117 12.37970215 -3.88818359 12.96166992 C-7.88260788 18.0268757 -12.28762703 22.5949557 -17 27 C-17.33 25.68 -17.66 24.36 -18 23 C-17.34 23 -16.68 23 -16 23 C-16 22.34 -16 21.68 -16 21 C-15.01 21 -14.02 21 -13 21 C-12.7421875 20.40960938 -12.484375 19.81921875 -12.21875 19.2109375 C-10.90572635 16.82897792 -9.51079148 15.43982451 -7.5 13.625 C-4.41535013 10.65578401 -2.93667664 8.26708246 -2 4 C-1.01 4 -0.02 4 1 4 C0.67 2.68 0.34 1.36 0 0 Z " fill="#7E1917" transform="translate(183,204)"/>
<path d="M0 0 C1.65 0 3.3 0 5 0 C5 0.66 5 1.32 5 2 C6.32 2.33 7.64 2.66 9 3 C9 3.99 9 4.98 9 6 C8.01 6 7.02 6 6 6 C6 7.32 6 8.64 6 10 C5.01 10.33 4.02 10.66 3 11 C-1.06153846 5.70769231 -1.06153846 5.70769231 -0.75 2.125 C-0.5025 1.42375 -0.255 0.7225 0 0 Z " fill="#ED7529" transform="translate(106,28)"/>
<path d="M0 0 C1.2375 -0.020625 2.475 -0.04125 3.75 -0.0625 C4.44609375 -0.07410156 5.1421875 -0.08570313 5.859375 -0.09765625 C8 0 8 0 9.765625 0.49609375 C13.1542305 1.26030723 16.54504269 1.14377694 20 1.125 C21.06734375 1.13080078 21.06734375 1.13080078 22.15625 1.13671875 C25.62591583 1.13024549 28.65712385 0.84909054 32 0 C34.4157906 -0.06831987 36.83334713 -0.08487642 39.25 -0.0625 C41.14492187 -0.04896484 41.14492187 -0.04896484 43.078125 -0.03515625 C44.04234375 -0.02355469 45.0065625 -0.01195312 46 0 C39.27827551 4.0330347 30.80687224 3.18280045 23.25 3.1875 C22.2290625 3.19974609 21.208125 3.21199219 20.15625 3.22460938 C13.22951222 3.23779479 6.76602139 2.47578198 0 1 C0 0.67 0 0.34 0 0 Z " fill="#741A20" transform="translate(80,250)"/>
<path d="M0 0 C4.38186255 1.78520326 7.6724261 4.82094768 10.1328125 8.859375 C12.45918549 14.60195338 11.33970895 21.44319124 9 27 C7.81318274 23.43954823 7.90310168 20.56191663 7.9375 16.8125 C7.94652344 15.54019531 7.95554687 14.26789063 7.96484375 12.95703125 C7.97644531 11.98121094 7.98804687 11.00539063 8 10 C6.68 10 5.36 10 4 10 C1.125 3.375 1.125 3.375 0 0 Z " fill="#8E461D" transform="translate(109,74)"/>
<path d="M0 0 C0.33 0 0.66 0 1 0 C0.60570607 5.81583546 0.04186143 8.60150373 -4 13 C-4.53625 13.9075 -5.0725 14.815 -5.625 15.75 C-7 18 -7 18 -9 19 C-9.50782273 13.62352763 -8.14726307 11.04086511 -5.0625 6.6875 C-4.33160156 5.63949219 -3.60070313 4.59148437 -2.84765625 3.51171875 C-1 1 -1 1 0 0 Z " fill="#BD3A13" transform="translate(60,91)"/>
<path d="M0 0 C3.48221175 0.17411059 5.65214817 0.68551124 8.75 2.1875 C8.09 3.5075 7.43 4.8275 6.75 6.1875 C3.12 6.1875 -0.51 6.1875 -4.25 6.1875 C-4.25 0.24519231 -4.25 0.24519231 0 0 Z " fill="#EA3622" transform="translate(115.25,52.8125)"/>
<path d="M0 0 C0.60585937 0.20496094 1.21171875 0.40992188 1.8359375 0.62109375 C7.20485274 2.3474065 12.17631372 3.32543395 17.79296875 3.75 C20.43314776 4.04906453 22.62753814 4.81376907 25 6 C25 6.33 25 6.66 25 7 C13.615 6.505 13.615 6.505 2 6 C2 5.01 2 4.02 2 3 C1.01 2.34 0.02 1.68 -1 1 C-0.67 0.67 -0.34 0.34 0 0 Z " fill="#D4251B" transform="translate(110,233)"/>
<path d="M0 0 C0.47308594 0.38671875 0.94617188 0.7734375 1.43359375 1.171875 C12.26594055 9.70261205 20.55908906 10.55553708 34 10 C31.50626197 12.49373803 29.99794714 12.25734666 26.59082031 12.27783203 C25.88022461 12.26864746 25.16962891 12.25946289 24.4375 12.25 C23.71530273 12.24468262 22.99310547 12.23936523 22.24902344 12.23388672 C15.49429335 12.11407898 8.95303695 11.50104296 3 8 C1.8125 5.5625 1.8125 5.5625 1 3 C0.67 2.01 0.34 1.02 0 0 Z " fill="#8A3C1C" transform="translate(96,167)"/>
<path d="M0 0 C0.33 0.66 0.66 1.32 1 2 C-1.31 2 -3.62 2 -6 2 C-6 10.25 -6 18.5 -6 27 C-8.76105854 21.47788292 -9.15698839 17.69995884 -9.1875 11.5 C-9.20167969 10.1903125 -9.21585938 8.880625 -9.23046875 7.53125 C-9.02088682 4.3200286 -8.81638411 2.60029725 -7 0 C-4.30234372 -1.34882814 -2.84835666 -0.80338265 0 0 Z " fill="#7D431B" transform="translate(16,154)"/>
<path d="M0 0 C4.02550319 1.3418344 4.88285636 3.4227573 7 7 C7 7.66 7 8.32 7 9 C8.65 8.67 10.3 8.34 12 8 C12.66 9.98 13.32 11.96 14 14 C10.59403535 13.36235365 8.23986879 12.0508817 5.375 10.125 C4.21097656 9.35542969 4.21097656 9.35542969 3.0234375 8.5703125 C1 7 1 7 -1 4 C-0.625 1.8125 -0.625 1.8125 0 0 Z " fill="#CB211C" transform="translate(62,208)"/>
<path d="M0 0 C3.197355 1.45334318 4.31022075 2.87101131 6.0625 5.9375 C6.39143776 9.29883271 6.29775691 12.57201921 6.0625 15.9375 C5.7325 15.9375 5.4025 15.9375 5.0625 15.9375 C4.753125 14.844375 4.44375 13.75125 4.125 12.625 C3.47912103 10.38342006 2.8001883 8.1505649 2.0625 5.9375 C-0.44197516 4.71880071 -0.44197516 4.71880071 -2.9375 3.9375 C-3.2675 5.2575 -3.5975 6.5775 -3.9375 7.9375 C-4.2675 7.9375 -4.5975 7.9375 -4.9375 7.9375 C-5.125 5.0625 -5.125 5.0625 -4.9375 1.9375 C-1.9375 -0.0625 -1.9375 -0.0625 0 0 Z " fill="#BA682B" transform="translate(133.9375,13.0625)"/>
<path d="M0 0 C3.25 0 3.25 0 7 1 C9.05083002 3.12207474 10.54872786 5.43853811 12 8 C11.01 8.33 10.02 8.66 9 9 C8.34 8.01 7.68 7.02 7 6 C6.01 5.67 5.02 5.34 4 5 C3.67 5.66 3.34 6.32 3 7 C2.67 6.34 2.34 5.68 2 5 C1.01 5.66 0.02 6.32 -1 7 C-1.04254356 5.00045254 -1.04080783 2.99958364 -1 1 C-0.67 0.67 -0.34 0.34 0 0 Z " fill="#E57A26" transform="translate(10,155)"/>
<path d="M0 0 C2.88214816 2.32877571 3.91208725 3.53338618 4.609375 7.234375 C4.65578125 8.39453125 4.7021875 9.5546875 4.75 10.75 C4.80671875 11.92046875 4.8634375 13.0909375 4.921875 14.296875 C4.94765625 15.18890625 4.9734375 16.0809375 5 17 C2.03595495 14.19195732 -0.44499019 11.81684226 -2 8 C-1.67 8 -1.34 8 -1 8 C-0.67 5.36 -0.34 2.72 0 0 Z " fill="#B73318" transform="translate(19,148)"/>
<path d="M0 0 C1.31625194 2.63250388 0.74813658 3.80179056 0.0625 6.625 C-0.13214844 7.44226563 -0.32679688 8.25953125 -0.52734375 9.1015625 C-0.68332031 9.72804688 -0.83929688 10.35453125 -1 11 C-1.33 11 -1.66 11 -2 11 C-2.1974513 17.16486851 -2.1266705 22.15165613 0 28 C0.07522969 30.33212027 0.09325876 32.6685311 0 35 C-0.33 35 -0.66 35 -1 35 C-3.96225307 25.69006177 -6.44981604 13.98886914 -3.09765625 4.42578125 C-2 2.5 -2 2.5 0 0 Z " fill="#DF282A" transform="translate(150,77)"/>
<path d="M0 0 C0.33 0.66 0.66 1.32 1 2 C3.02463255 2.65213292 3.02463255 2.65213292 5 3 C1.70905784 6.66704983 -0.16621398 8.23677063 -5 9 C-5.515625 9.53625 -6.03125 10.0725 -6.5625 10.625 C-7.036875 11.07875 -7.51125 11.5325 -8 12 C-10.1875 11.6875 -10.1875 11.6875 -12 11 C-6.375 7.125 -6.375 7.125 -3 6 C-1.83333333 4.08333333 -1.83333333 4.08333333 -1 2 C-0.67 1.34 -0.34 0.68 0 0 Z " fill="#88201E" transform="translate(142,165)"/>
<path d="M0 0 C6.50765436 9.76148155 5.28186569 22.87735001 4 34 C3.67 34 3.34 34 3 34 C2.67 25.75 2.34 17.5 2 9 C1.34 9 0.68 9 0 9 C0 6.03 0 3.06 0 0 Z " fill="#6E301A" transform="translate(195,142)"/>
<path d="M0 0 C0.14285714 8.57142857 0.14285714 8.57142857 -1 12 C-1.66 12 -2.32 12 -3 12 C-6 5.5 -6 5.5 -6 1 C-3.82510133 -0.08744934 -2.41588781 0 0 0 Z " fill="#C33420" transform="translate(137,38)"/>
<path d="M0 0 C0.66 0 1.32 0 2 0 C1.83242187 1.02738281 1.66484375 2.05476562 1.4921875 3.11328125 C0.22303577 11.51201973 -0.29456815 18.66895255 2 27 C-0.75661088 24.51015791 -2.60746455 22.79450934 -3 19 C-2.67 18.67 -2.34 18.34 -2 18 C-1.78871644 15.35015201 -1.62387334 12.71660103 -1.5 10.0625 C-1.13434803 2.26869607 -1.13434803 2.26869607 0 0 Z " fill="#863D18" transform="translate(92,136)"/>
<path d="M0 0 C2.5 1.75 2.5 1.75 5 4 C5 5.32 5 6.64 5 8 C5.99 8.33 6.98 8.66 8 9 C8 9.66 8 10.32 8 11 C3.58700462 9.79645581 0.91887443 8.56751319 -2 5 C-2.33 4.01 -2.66 3.02 -3 2 C-2.01 1.34 -1.02 0.68 0 0 Z " fill="#EA4628" transform="translate(124,42)"/>
<path d="M0 0 C0 0.66 0 1.32 0 2 C1.32 2.33 2.64 2.66 4 3 C4 3.99 4 4.98 4 6 C3.01 6.33 2.02 6.66 1 7 C1 6.34 1 5.68 1 5 C-0.918125 5.061875 -0.918125 5.061875 -2.875 5.125 C-5.0546875 5.1953125 -5.0546875 5.1953125 -7 5 C-7.66 4.34 -8.32 3.68 -9 3 C-6.15236477 0.15236477 -3.96383452 0 0 0 Z " fill="#DB6528" transform="translate(41,89)"/>
<path d="M0 0 C0.33 0 0.66 0 1 0 C1.25044324 3.02040579 1.4758559 6.03933112 1.6875 9.0625 C1.76033203 9.91005859 1.83316406 10.75761719 1.90820312 11.63085938 C2.27952791 17.28810162 1.87206016 21.0511183 -1 26 C-1.99 26.33 -2.98 26.66 -4 27 C-3.79503906 26.3915625 -3.59007812 25.783125 -3.37890625 25.15625 C-0.807232 16.7890802 -0.31596506 8.6835914 0 0 Z " fill="#79211E" transform="translate(147,138)"/>
<path d="M0 0 C0.33 0 0.66 0 1 0 C1.33 2.97 1.66 5.94 2 9 C1.34 9 0.68 9 0 9 C0.01160156 10.09699219 0.02320313 11.19398437 0.03515625 12.32421875 C0.04453964 13.77864412 0.05363925 15.23307135 0.0625 16.6875 C0.07087891 17.40873047 0.07925781 18.12996094 0.08789062 18.87304688 C0.10543632 22.71555382 -0.06475779 26.26639526 -1 30 C-1.33 30 -1.66 30 -2 30 C-2.39755352 8.99082569 -2.39755352 8.99082569 0 0 Z " fill="#AE3317" transform="translate(20,112)"/>
<path d="M0 0 C4.1935917 0.56452196 6.57434051 2.28966531 9.25 5.4375 C11.13016688 8.48936508 12.4067071 11.2151846 11.9375 14.875 C11.710625 15.390625 11.48375 15.90625 11.25 16.4375 C10.569375 14.7359375 10.569375 14.7359375 9.875 13 C8.67904194 9.39028308 8.67904194 9.39028308 6.25 8.4375 C6.25 7.1175 6.25 5.7975 6.25 4.4375 C4.93 4.1075 3.61 3.7775 2.25 3.4375 C2.25 2.7775 2.25 2.1175 2.25 1.4375 C-0.06 1.7675 -2.37 2.0975 -4.75 2.4375 C-2.75 0.4375 -2.75 0.4375 0 0 Z " fill="#76371B" transform="translate(38.75,87.5625)"/>
<path d="M0 0 C2 2 2 2 2.23046875 4.64453125 C2.20919922 6.21267578 2.20919922 6.21267578 2.1875 7.8125 C2.18105469 8.85019531 2.17460938 9.88789062 2.16796875 10.95703125 C2.01429286 13.74106653 1.62662052 16.28798637 1 19 C0.01 18.67 -0.98 18.34 -2 18 C-3.25541557 14.23375329 -2.37061958 12.62811066 -1 9 C-0.34 9 0.32 9 1 9 C0.67 6.03 0.34 3.06 0 0 Z " fill="#D55F25" transform="translate(116,84)"/>
<path d="M0 0 C1.0209375 0.433125 1.0209375 0.433125 2.0625 0.875 C5.32893093 2.12597355 8.62846123 3.07447955 12 4 C11.34 5.65 10.68 7.3 10 9 C8.68 8.67 7.36 8.34 6 8 C6.33 7.67 6.66 7.34 7 7 C3.7 6.01 0.4 5.02 -3 4 C-1.68 3.67 -0.36 3.34 1 3 C0.67 2.01 0.34 1.02 0 0 Z " fill="#52190D" transform="translate(123,49)"/>
<path d="M0 0 C0.99 0 1.98 0 3 0 C3.29036649 3.38115651 3.44908891 6.62919149 3 10 C0.5 12.625 0.5 12.625 -2 14 C-2.042721 12.33388095 -2.04063832 10.66617115 -2 9 C-1.67 8.67 -1.34 8.34 -1 8 C-0.76924918 6.65252916 -0.58846937 5.29622435 -0.4375 3.9375 C-0.293125 2.638125 -0.14875 1.33875 0 0 Z " fill="#961713" transform="translate(181,132)"/>
<path d="M0 0 C0.66 1.32 1.32 2.64 2 4 C-2.79864477 7.85137983 -7.22642241 10.8349084 -13 13 C-11.79020328 9.37060985 -10.81076645 9.00592063 -7.625 7.0625 C-4.3156638 5.04132561 -2.16554803 3.23435077 0 0 Z " fill="#B7211D" transform="translate(175,152)"/>
<path d="M0 0 C0.66 0 1.32 0 2 0 C2 5.94 2 11.88 2 18 C1.34 17.67 0.68 17.34 0 17 C-0.59355614 14.35139573 -0.74209269 11.70802678 -1 9 C-1.99 9.495 -1.99 9.495 -3 10 C-2.69201674 8.51988629 -2.378482 7.04092675 -2.0625 5.5625 C-1.88847656 4.73878906 -1.71445313 3.91507813 -1.53515625 3.06640625 C-1 1 -1 1 0 0 Z " fill="#DC5B23" transform="translate(89,138)"/>
<path d="M0 0 C0.99 0.33 1.98 0.66 3 1 C2.39644592 4.85025879 1.23227397 7.86101159 -0.5625 11.3125 C-1.01753906 12.19550781 -1.47257813 13.07851562 -1.94140625 13.98828125 C-2.29074219 14.65214844 -2.64007813 15.31601563 -3 16 C-4.31538327 11.84228506 -3.34433068 9.1120703 -2 5 C-1.67 5 -1.34 5 -1 5 C-0.67 3.35 -0.34 1.7 0 0 Z " fill="#A8401C" transform="translate(191,188)"/>
<path d="M0 0 C0.99 0 1.98 0 3 0 C3 1.65 3 3.3 3 5 C3.66 5 4.32 5 5 5 C5.1953125 7.05078125 5.390625 9.1015625 5.5859375 11.15234375 C5.72257812 11.76207031 5.85921875 12.37179688 6 13 C6.66 13.33 7.32 13.66 8 14 C8.625 16.5625 8.625 16.5625 9 19 C5.8525269 16.35347607 4.50027732 13.20060805 2.8125 9.5 C2.28269531 8.3553125 1.75289062 7.210625 1.20703125 6.03125 C0 3 0 3 0 0 Z " fill="#89421E" transform="translate(12,187)"/>
<path d="M0 0 C0.33 0 0.66 0 1 0 C1.18413176 5.33982109 0.69504588 8.91486237 -1 14 C-1.04268239 15.3951806 -1.04066276 16.79225908 -1 18.1875 C-1 22 -1 22 -3 25 C-3.24182243 7.13200935 -3.24182243 7.13200935 0 0 Z " fill="#E2521E" transform="translate(83,154)"/>
<path d="M0 0 C0.66 0.33 1.32 0.66 2 1 C2.625 3.5625 2.625 3.5625 3 6 C3.99 6.33 4.98 6.66 6 7 C6 7.66 6 8.32 6 9 C7.98 9 9.96 9 12 9 C12 9.33 12 9.66 12 10 C6.77825222 10.31330487 3.42308959 9.88015136 -1 7 C-2.375 4.8125 -2.375 4.8125 -3 3 C-2.01 2.01 -1.02 1.02 0 0 Z " fill="#884D1F" transform="translate(103,52)"/>
<path d="M0 0 C1.4606285 2.64738916 2 3.89448334 2 7 C2.66 7 3.32 7 4 7 C4.53341184 8.57914015 5.05125763 10.16354387 5.5625 11.75 C5.85253906 12.63171875 6.14257812 13.5134375 6.44140625 14.421875 C7.01697435 17.07834316 6.89248371 18.47031106 6 21 C3.33333333 14.33333333 0.66666667 7.66666667 -2 1 C-1.34 0.67 -0.68 0.34 0 0 Z " fill="#661817" transform="translate(138,108)"/>
<path d="M0 0 C1 2 1 2 0.3984375 4.06640625 C-2.01859062 9.96137177 -4.76476185 15.51070248 -8 21 C-9.36597768 16.90206695 -8.09482364 15.46399015 -6.25 11.625 C-5.45335937 9.94277344 -5.45335937 9.94277344 -4.640625 8.2265625 C-3.20265142 5.39854779 -1.67430154 2.69300308 0 0 Z " fill="#EB3C19" transform="translate(184,167)"/>
<path d="M0 0 C3 1 3 1 4.421875 3.21484375 C4.86015625 4.11332031 5.2984375 5.01179687 5.75 5.9375 C6.19859375 6.83339844 6.6471875 7.72929687 7.109375 8.65234375 C7.40328125 9.42707031 7.6971875 10.20179688 8 11 C7.67 11.66 7.34 12.32 7 13 C6.01 12.34 5.02 11.68 4 11 C4 9.68 4 8.36 4 7 C3.01 7 2.02 7 1 7 C0.67 4.69 0.34 2.38 0 0 Z " fill="#C35220" transform="translate(187,129)"/>
<path d="M0 0 C2.31 1.98 4.62 3.96 7 6 C6.67 6.66 6.34 7.32 6 8 C1.05 7.01 -3.9 6.02 -9 5 C-9 4.67 -9 4.34 -9 4 C-5.7 4 -2.4 4 1 4 C0.67 2.68 0.34 1.36 0 0 Z " fill="#75272C" transform="translate(173,64)"/>
<path d="M0 0 C0.66 0.33 1.32 0.66 2 1 C-0.1217363 2.33878572 -2.24705188 3.67115476 -4.375 5 C-4.97828125 5.3815625 -5.5815625 5.763125 -6.203125 6.15625 C-10.7734375 9 -10.7734375 9 -13 9 C-12.34 7.35 -11.68 5.7 -11 4 C-9.02 4 -7.04 4 -5 4 C-5 3.34 -5 2.68 -5 2 C-2.625 0.9375 -2.625 0.9375 0 0 Z " fill="#7E161F" transform="translate(157,235)"/>
<path d="M0 0 C3.9252025 3.70090521 6.94580156 7.54959656 10 12 C9.67 12.66 9.34 13.32 9 14 C7.125 13.375 7.125 13.375 5 12 C3.75 8.875 3.75 8.875 3 6 C2.34 6 1.68 6 1 6 C0.67 4.02 0.34 2.04 0 0 Z " fill="#9B2624" transform="translate(164,95)"/>
<path d="M0 0 C4.75 0.75 4.75 0.75 7 3 C7.61875 3.28875 8.2375 3.5775 8.875 3.875 C11.40156407 5.21259274 13.05926336 6.92063932 15 9 C11.15691635 9 9.58212572 7.69820792 6.375 5.625 C5.39273438 4.99851563 4.41046875 4.37203125 3.3984375 3.7265625 C1 2 1 2 0 0 Z " fill="#8F2F22" transform="translate(43,232)"/>
<path d="M0 0 C-0.55704728 3.23087421 -1.33187535 5.02361137 -4 7 C-5.32 7 -6.64 7 -8 7 C-7.75 4.625 -7.75 4.625 -7 2 C-4.43689172 0.2058242 -3.16880694 0 0 0 Z " fill="#A31820" transform="translate(165,228)"/>
<path d="M0 0 C0.92930784 2.78792353 1.01669507 5.22118075 0.9375 8.125 C0.55086978 12.01461069 0.55086978 12.01461069 3 14 C3.66 14 4.32 14 5 14 C5 15.32 5 16.64 5 18 C2.13275314 17.42655063 1.1385485 17.1385485 -1 15 C-1.23046875 12.03125 -1.23046875 12.03125 -1.1875 8.5 C-1.17783203 6.75203125 -1.17783203 6.75203125 -1.16796875 4.96875 C-1 2 -1 2 0 0 Z " fill="#7C2814" transform="translate(128,17)"/>
<path d="M0 0 C-0.99 0.495 -0.99 0.495 -2 1 C-2 1.99 -2 2.98 -2 4 C-3.65 4.33 -5.3 4.66 -7 5 C-7 5.66 -7 6.32 -7 7 C-7.66 7 -8.32 7 -9 7 C-8.8125 4.6875 -8.8125 4.6875 -8 2 C-3.84375 -1.28125 -3.84375 -1.28125 0 0 Z " fill="#C21722" transform="translate(159,232)"/>
<path d="M0 0 C0.33 0.66 0.66 1.32 1 2 C0.34 2 -0.32 2 -1 2 C-1 3.65 -1 5.3 -1 7 C-1.66 7 -2.32 7 -3 7 C-3.33 9.31 -3.66 11.62 -4 14 C-4.66 14 -5.32 14 -6 14 C-6.33 14.66 -6.66 15.32 -7 16 C-7.33 14.35 -7.66 12.7 -8 11 C-7.34 11 -6.68 11 -6 11 C-5.71125 10.278125 -5.4225 9.55625 -5.125 8.8125 C-4.75375 7.884375 -4.3825 6.95625 -4 6 C-3.505 4.63875 -3.505 4.63875 -3 3.25 C-2 1 -2 1 0 0 Z " fill="#D95623" transform="translate(98,122)"/>
<path d="M0 0 C0.33 0.99 0.66 1.98 1 3 C-0.98 3.66 -2.96 4.32 -5 5 C-5 4.34 -5 3.68 -5 3 C-6.65 3 -8.3 3 -10 3 C-10 2.34 -10 1.68 -10 1 C-3.375 -1.125 -3.375 -1.125 0 0 Z " fill="#DF6928" transform="translate(110,75)"/>
<path d="M0 0 C1.2065625 0.0309375 1.2065625 0.0309375 2.4375 0.0625 C2.7675 1.3825 3.0975 2.7025 3.4375 4.0625 C1.1275 4.7225 -1.1825 5.3825 -3.5625 6.0625 C-3.605221 4.39638095 -3.60313832 2.72867115 -3.5625 1.0625 C-2.5625 0.0625 -2.5625 0.0625 0 0 Z " fill="#EA311F" transform="translate(117.5625,34.9375)"/>
<path d="M0 0 C0.33 2.97 0.66 5.94 1 9 C0.443125 8.505 -0.11375 8.01 -0.6875 7.5 C-3.38162983 5.75245633 -4.85375007 5.73781251 -8 6 C-8.33 6.66 -8.66 7.32 -9 8 C-9 7.01 -9 6.02 -9 5 C-7.35 4.67 -5.7 4.34 -4 4 C-4 3.34 -4 2.68 -4 2 C-1 0 -1 0 0 0 Z " fill="#E95728" transform="translate(139,23)"/>
<path d="M0 0 C4 6 4 6 4 10 C4.99 9.67 5.98 9.34 7 9 C7.33 10.65 7.66 12.3 8 14 C7.01 14 6.02 14 5 14 C1.66365291 9.8548415 0.21661985 6.06924938 -1 1 C-0.67 0.67 -0.34 0.34 0 0 Z " fill="#A94C27" transform="translate(20,200)"/>
<path d="M0 0 C0.66 0.33 1.32 0.66 2 1 C2.33 1.99 2.66 2.98 3 4 C1.35 4.33 -0.3 4.66 -2 5 C-2.33 5.99 -2.66 6.98 -3 8 C-5.0625 8.6875 -5.0625 8.6875 -7 9 C-5.44499019 5.18315774 -2.96404505 2.80804268 0 0 Z " fill="#852E13" transform="translate(68,82)"/>
<path d="M0 0 C-2.24561282 0.86762314 -4.49526255 1.7192103 -6.75 2.5625 C-7.38421875 2.80935547 -8.0184375 3.05621094 -8.671875 3.31054688 C-12.11009179 4.58197079 -14.52168882 5.46686355 -18 4 C-17.67 3.34 -17.34 2.68 -17 2 C-15.07421875 1.65625 -15.07421875 1.65625 -12.6875 1.5 C-10.04251439 1.32512492 -8.30832613 1.16506944 -5.95703125 -0.09375 C-3.54049977 -1.21278254 -2.45585528 -0.87709117 0 0 Z " fill="#73141E" transform="translate(144,245)"/>
<path d="M0 0 C1.32 0.66 2.64 1.32 4 2 C0.38671875 6.6875 0.38671875 6.6875 -1 8 C-1.99 8 -2.98 8 -4 8 C-4 8.66 -4 9.32 -4 10 C-4.66 10 -5.32 10 -6 10 C-6 9.01 -6 8.02 -6 7 C-4.68 7 -3.36 7 -2 7 C-2 5.35 -2 3.7 -2 2 C-1.34 2 -0.68 2 0 2 C0 1.34 0 0.68 0 0 Z " fill="#E64723" transform="translate(171,217)"/>
<path d="M0 0 C0.66 0.33 1.32 0.66 2 1 C1.67 2.65 1.34 4.3 1 6 C-1.31 6.66 -3.62 7.32 -6 8 C-4.55746343 4.63408134 -2.66735273 2.48952921 0 0 Z " fill="#A84F1F" transform="translate(32,90)"/>
<path d="M0 0 C-0.33 2.31 -0.66 4.62 -1 7 C-1.66 7 -2.32 7 -3 7 C-4.20628008 4.66785852 -5.1654738 2.50357861 -6 0 C-3.50907189 -1.24546405 -2.58919267 -0.7767578 0 0 Z " fill="#B81809" transform="translate(137,29)"/>
<path d="M0 0 C3.5625 0.1875 3.5625 0.1875 5.5625 2.1875 C2.9225 2.5175 0.2825 2.8475 -2.4375 3.1875 C-2.4375 5.1675 -2.4375 7.1475 -2.4375 9.1875 C-1.7775 9.5175 -1.1175 9.8475 -0.4375 10.1875 C-1.4275 10.1875 -2.4175 10.1875 -3.4375 10.1875 C-4.92856457 7.20537087 -4.55691467 4.47140342 -4.4375 1.1875 C-3.4375 0.1875 -3.4375 0.1875 0 0 Z " fill="#7A4019" transform="translate(108.4375,25.8125)"/>
<path d="M0 0 C2.64752004 2.57784846 4.94432065 4.91648098 7 8 C6.625 10.1875 6.625 10.1875 6 12 C4.98829382 10.75945552 3.99102203 9.5071298 3 8.25 C2.443125 7.55390625 1.88625 6.8578125 1.3125 6.140625 C0 4 0 4 0 0 Z " fill="#A03425" transform="translate(121,34)"/>
<path d="M0 0 C0 0.66 0 1.32 0 2 C2.31 2.33 4.62 2.66 7 3 C7 3.66 7 4.32 7 5 C2.28596212 4.52060632 -1.66579301 4.03165952 -6 2 C-3 0 -3 0 0 0 Z " fill="#8D291F" transform="translate(73,245)"/>
<path d="M0 0 C2.625 0.9375 2.625 0.9375 5 2 C4.67 3.32 4.34 4.64 4 6 C5.32 6.33 6.64 6.66 8 7 C6.68 7.33 5.36 7.66 4 8 C3.67 7.01 3.34 6.02 3 5 C1.68352881 4.30062468 0.34977849 3.63270867 -1 3 C-1.33 2.34 -1.66 1.68 -2 1 C-1.34 0.67 -0.68 0.34 0 0 Z " fill="#CF3B28" transform="translate(54,234)"/>
<path d="M0 0 C0.99 0 1.98 0 3 0 C2.52060632 4.71403788 2.03165952 8.66579301 0 13 C-0.33 13 -0.66 13 -1 13 C-0.67 8.71 -0.34 4.42 0 0 Z " fill="#973F1A" transform="translate(195,176)"/>
<path d="M0 0 C3.40208828 3.40208828 3.05433827 7.77178592 3.0625 12.375 C3.041875 13.57125 3.02125 14.7675 3 16 C2.01 15.67 1.02 15.34 0 15 C0.185625 14.195625 0.37125 13.39125 0.5625 12.5625 C1.09610028 8.21746916 0.6225704 4.31010276 0 0 Z " fill="#CC261F" transform="translate(154,128)"/>
<path d="M0 0 C1.65 0 3.3 0 5 0 C4.01 0.495 4.01 0.495 3 1 C3 1.66 3 2.32 3 3 C1.3777546 4.70993434 -0.29413425 6.37347684 -2 8 C-2.8971875 8.8971875 -2.8971875 8.8971875 -3.8125 9.8125 C-4.204375 10.204375 -4.59625 10.59625 -5 11 C-4.32902328 6.80639551 -2.1441606 3.59665648 0 0 Z " fill="#A11011" transform="translate(151,72)"/>
<path d="M0 0 C3.91531663 5.10693473 4.10265877 7.63515636 4 14 C3.34 13.67 2.68 13.34 2 13 C1.3671875 10.05859375 1.3671875 10.05859375 0.875 6.4375 C0.70742187 5.23996094 0.53984375 4.04242188 0.3671875 2.80859375 C0.24601563 1.88175781 0.12484375 0.95492187 0 0 Z " fill="#9A1109" transform="translate(178,117)"/>
<path d="M0 0 C2.475 0.99 2.475 0.99 5 2 C5 2.66 5 3.32 5 4 C4.01 4.495 4.01 4.495 3 5 C3.33 5.99 3.66 6.98 4 8 C1.525 7.01 1.525 7.01 -1 6 C-0.67 4.02 -0.34 2.04 0 0 Z " fill="#E45723" transform="translate(97,112)"/>
<path d="M0 0 C2.67927341 4.01891012 2.15601248 6.24161923 2 11 C-0.2477975 8.94766315 -1.0022242 7.99332739 -2 5 C-2.33 4.34 -2.66 3.68 -3 3 C-2.01 2.01 -1.02 1.02 0 0 Z " fill="#BE320C" transform="translate(29,107)"/>
<path d="M0 0 C4.57478244 2.0214155 7.61831569 4.31993178 11 8 C6.97454466 7.71915428 5.25517374 7.21634296 2.125 4.5625 C0 2 0 2 0 0 Z " fill="#7A1A1C" transform="translate(162,56)"/>
<path d="M0 0 C2.97 0.495 2.97 0.495 6 1 C2.83759418 3.10827055 1.49342531 3.33817465 -2.1875 3.625 C-3.53908203 3.73714844 -3.53908203 3.73714844 -4.91796875 3.8515625 C-5.94857422 3.92503906 -5.94857422 3.92503906 -7 4 C-7.33 3.34 -7.66 2.68 -8 2 C-5.36 2 -2.72 2 0 2 C0 1.34 0 0.68 0 0 Z " fill="#973321" transform="translate(122,57)"/>
<path d="M0 0 C2.1875 -0.375 2.1875 -0.375 5 0 C6.99022836 1.83961648 8.38989899 3.79186148 10 6 C8.68 6 7.36 6 6 6 C6 5.34 6 4.68 6 4 C4.02 3.34 2.04 2.68 0 2 C0 1.34 0 0.68 0 0 Z " fill="#B8542D" transform="translate(111,28)"/>
<path d="M0 0 C0.6875 1.6875 0.6875 1.6875 1 4 C-0.1875 6.6875 -0.1875 6.6875 -2 9 C-4.1875 9.8125 -4.1875 9.8125 -6 10 C-4.6302836 6.00499382 -2.74277578 3.19990508 0 0 Z " fill="#7F2F14" transform="translate(60,91)"/>
<path d="M0 0 C-0.33 1.32 -0.66 2.64 -1 4 C-3.97 3.67 -6.94 3.34 -10 3 C-9 1 -9 1 -7.25 0.375 C-4.79549443 -0.03408426 -2.4840589 -0.06900164 0 0 Z " fill="#DE6A2B" transform="translate(87,75)"/>
<path d="M0 0 C2.64 0.33 5.28 0.66 8 1 C7.2265625 1.37125 7.2265625 1.37125 6.4375 1.75 C3.22815849 3.39581616 0.12414336 5.1976096 -3 7 C-2.67 5.68 -2.34 4.36 -2 3 C-1.34 3 -0.68 3 0 3 C0 2.01 0 1.02 0 0 Z " fill="#5E1413" transform="translate(160,68)"/>
<path d="M0 0 C-3.58453926 1.86396041 -7.28800818 3.40914636 -11 5 C-12.34013497 5.65288627 -13.67741528 6.31225595 -15 7 C-13.84279329 3.52837986 -13.0574321 2.86843073 -10 1 C-6.62477006 0.04801207 -3.49530784 -0.09986594 0 0 Z " fill="#CD212B" transform="translate(156,66)"/>
<path d="M0 0 C0.66 0.33 1.32 0.66 2 1 C1.67 2.65 1.34 4.3 1 6 C0.34 6 -0.32 6 -1 6 C-1.268125 6.969375 -1.53625 7.93875 -1.8125 8.9375 C-2.204375 9.948125 -2.59625 10.95875 -3 12 C-3.99 12.33 -4.98 12.66 -6 13 C-5.67 12.01 -5.34 11.02 -5 10 C-4.34 10 -3.68 10 -3 10 C-2.87625 9.0925 -2.7525 8.185 -2.625 7.25 C-2.07890323 4.41029677 -1.42736197 2.47409409 0 0 Z " fill="#C53030" transform="translate(149,154)"/>
<path d="M0 0 C3.36415018 2.24276679 3.48073245 2.64033012 4.25 6.375 C4.50523437 7.53128906 4.50523437 7.53128906 4.765625 8.7109375 C5.00977253 11.09544508 4.72482102 12.73234568 4 15 C3.32532438 13.25307205 2.66055844 11.50231475 2 9.75 C1.62875 8.77546875 1.2575 7.8009375 0.875 6.796875 C0 4 0 4 0 0 Z " fill="#BA2D28" transform="translate(174,109)"/>
<path d="M0 0 C0.33 0 0.66 0 1 0 C1.02721176 1.89575251 1.04649136 3.79161979 1.0625 5.6875 C1.07410156 6.74324219 1.08570313 7.79898437 1.09765625 8.88671875 C1.00865425 11.72410262 0.64939838 14.2438919 0 17 C-2 15 -2 15 -2.125 12.375 C-2.08375 11.59125 -2.0425 10.8075 -2 10 C-1.34 10 -0.68 10 0 10 C0 6.7 0 3.4 0 0 Z " fill="#611710" transform="translate(140,22)"/>
<path d="M0 0 C3.26566506 4.89849759 3.09311493 8.31998909 3 14 C2.67 14 2.34 14 2 14 C2 12.35 2 10.7 2 9 C1.34 9 0.68 9 0 9 C0 6.03 0 3.06 0 0 Z " fill="#9B411C" transform="translate(195,142)"/>
<path d="M0 0 C2.74277578 3.19990508 4.6302836 6.00499382 6 10 C5.01 10.66 4.02 11.32 3 12 C1.57499941 8.00999834 0.59924224 4.19469571 0 0 Z " fill="#941F21" transform="translate(158,85)"/>
<path d="M0 0 C-1.25 1.5 -1.25 1.5 -3 3 C-4.32 3 -5.64 3 -7 3 C-7 2.34 -7 1.68 -7 1 C-8.32 0.67 -9.64 0.34 -11 0 C-6.98195309 -0.84098656 -3.98196457 -1.05404945 0 0 Z " fill="#C0581D" transform="translate(109,73)"/>
<path d="M0 0 C0.99 0.33 1.98 0.66 3 1 C3.33 1.99 3.66 2.98 4 4 C2.35 4.33 0.7 4.66 -1 5 C-1.33 6.32 -1.66 7.64 -2 9 C-2.125 5.625 -2.125 5.625 -2 2 C-1.34 1.34 -0.68 0.68 0 0 Z " fill="#F36226" transform="translate(131,23)"/>
<path d="M0 0 C1.32 0 2.64 0 4 0 C2.87548273 2.9719385 1.77706209 5.33440687 0 8 C-0.66 8 -1.32 8 -2 8 C-2 6.68 -2 5.36 -2 4 C-1.01 4 -0.02 4 1 4 C0.67 2.68 0.34 1.36 0 0 Z " fill="#A93B1D" transform="translate(183,204)"/>
<path d="M0 0 C0.66 0.66 1.32 1.32 2 2 C1.625 5.125 1.625 5.125 1 8 C0.01 7.67 -0.98 7.34 -2 7 C-2.33 5.02 -2.66 3.04 -3 1 C-2.01 1.495 -2.01 1.495 -1 2 C-0.67 1.34 -0.34 0.68 0 0 Z " fill="#5B1C14" transform="translate(131,43)"/>
<path d="M0 0 C2 1.375 2 1.375 4 4 C4.35791096 7.3580469 4.23115823 10.63536357 4 14 C3.67 14 3.34 14 3 14 C0.88838269 4.58997722 0.88838269 4.58997722 0 0 Z " fill="#A04D1E" transform="translate(136,15)"/>
<path d="M0 0 C0.99 0.33 1.98 0.66 3 1 C4.1875 3.5625 4.1875 3.5625 5 6 C1.64404172 5.40072174 -0.37801226 4.15377564 -3 2 C-2.01 2 -1.02 2 0 2 C0 1.34 0 0.68 0 0 Z " fill="#D4271A" transform="translate(71,216)"/>
<path d="M0 0 C3.99455527 0.61454696 6.74466336 2.70646737 10 5 C9.01 5.495 9.01 5.495 8 6 C1.29411765 2.58823529 1.29411765 2.58823529 0 0 Z " fill="#E3501C" transform="translate(98,224)"/>
<path d="M0 0 C0.66 0.33 1.32 0.66 2 1 C1.525625 1.598125 1.05125 2.19625 0.5625 2.8125 C-1.16465744 5.00382924 -1.16465744 5.00382924 -2 8 C-2.99 8 -3.98 8 -5 8 C-3.8141763 4.62496331 -2.72426311 2.35277269 0 0 Z " fill="#941919" transform="translate(145,72)"/>
<path d="M0 0 C4.75 0.75 4.75 0.75 7 3 C5.68 3.99 4.36 4.98 3 6 C0 1.125 0 1.125 0 0 Z " fill="#E96426" transform="translate(109,178)"/>
<path d="M0 0 C1.88391785 3.26545761 2.49287967 6.28111761 3 10 C1.35 8.68 -0.3 7.36 -2 6 C-1.34 4.02 -0.68 2.04 0 0 Z " fill="#6D230C" transform="translate(19,152)"/>
<path d="M0 0 C2 2 2 2 2 5 C3.32 5.33 4.64 5.66 6 6 C6 6.33 6 6.66 6 7 C4.02 7 2.04 7 0 7 C0 4.69 0 2.38 0 0 Z " fill="#E16937" transform="translate(109,54)"/>
<path d="M0 0 C2.31 0.33 4.62 0.66 7 1 C7.33 2.32 7.66 3.64 8 5 C2.25 3.375 2.25 3.375 0 0 Z " fill="#9B3124" transform="translate(115,44)"/>
<path d="M0 0 C1.2065625 0.0309375 1.2065625 0.0309375 2.4375 0.0625 C1.1175 0.3925 -0.2025 0.7225 -1.5625 1.0625 C-1.2325 2.3825 -0.9025 3.7025 -0.5625 5.0625 C-1.5525 5.7225 -2.5425 6.3825 -3.5625 7.0625 C-3.60504356 5.06295254 -3.60330783 3.06208364 -3.5625 1.0625 C-2.5625 0.0625 -2.5625 0.0625 0 0 Z " fill="#DC722D" transform="translate(12.5625,154.9375)"/>
<path d="M0 0 C2.89932357 2.39509338 3.50168276 4.31245243 4 8 C2.68 7.34 1.36 6.68 0 6 C0 4.02 0 2.04 0 0 Z " fill="#983D15" transform="translate(191,134)"/>
<path d="M0 0 C2.5 2.3125 2.5 2.3125 5 5 C5 5.99 5 6.98 5 8 C2.5 6.8125 2.5 6.8125 0 5 C-0.3125 2.3125 -0.3125 2.3125 0 0 Z " fill="#7B241B" transform="translate(177,113)"/>
<path d="M0 0 C0.33 0 0.66 0 1 0 C0.4140625 6.15234375 0.4140625 6.15234375 0 8 C-0.99 8.495 -0.99 8.495 -2 9 C-2.25 3.375 -2.25 3.375 0 0 Z " fill="#8B2A10" transform="translate(53,101)"/>
<path d="M0 0 C0.99 0 1.98 0 3 0 C2.67 2.31 2.34 4.62 2 7 C0.4375 5.75 0.4375 5.75 -1 4 C-0.6875 1.8125 -0.6875 1.8125 0 0 Z " fill="#D8612B" transform="translate(27,97)"/>
<path d="M0 0 C0.103125 0.639375 0.20625 1.27875 0.3125 1.9375 C0.539375 2.618125 0.76625 3.29875 1 4 C1.99 4.33 2.98 4.66 4 5 C4 5.66 4 6.32 4 7 C1.97954558 6.39816251 -0.02111039 5.72693904 -2 5 C-2.33 4.34 -2.66 3.68 -3 3 C-2.01 3 -1.02 3 0 3 C0 2.01 0 1.02 0 0 Z " fill="#C45138" transform="translate(128,46)"/>
<path d="M0 0 C1.9375 0.75 1.9375 0.75 4 2 C4.75 4.125 4.75 4.125 5 6 C3.68 6 2.36 6 1 6 C0.67 4.02 0.34 2.04 0 0 Z " fill="#B75528" transform="translate(91,161)"/>
<path d="M0 0 C0.99 0 1.98 0 3 0 C2.34 2.97 1.68 5.94 1 9 C0.67 9 0.34 9 0 9 C0 6.03 0 3.06 0 0 Z " fill="#C82B23" transform="translate(149,144)"/>
<path d="M0 0 C0.33 0.66 0.66 1.32 1 2 C1.66 2 2.32 2 3 2 C3 4.64 3 7.28 3 10 C0.70366176 6.55549263 0.45983515 4.06187717 0 0 Z " fill="#71171C" transform="translate(128,88)"/>
<path d="M0 0 C0.66 0.33 1.32 0.66 2 1 C2 2.65 2 4.3 2 6 C-0.475 5.01 -0.475 5.01 -3 4 C-2.67 3.01 -2.34 2.02 -2 1 C-1.34 0.67 -0.68 0.34 0 0 Z " fill="#E66223" transform="translate(77,82)"/>
<path d="M0 0 C0.99 0.66 1.98 1.32 3 2 C2.34 3.32 1.68 4.64 1 6 C-0.32 5.67 -1.64 5.34 -3 5 C-2.625 3.0625 -2.625 3.0625 -2 1 C-1.34 0.67 -0.68 0.34 0 0 Z " fill="#542119" transform="translate(132,52)"/>
<path d="M0 0 C0.66 0.33 1.32 0.66 2 1 C1.67 1.66 1.34 2.32 1 3 C0.01 3 -0.98 3 -2 3 C-2 3.66 -2 4.32 -2 5 C-3.32 4.67 -4.64 4.34 -6 4 C-4.03617993 2.49440461 -2.21736634 1.10868317 0 0 Z " fill="#CE3728" transform="translate(118,39)"/>
<path d="M0 0 C0.99 0 1.98 0 3 0 C3 0.99 3 1.98 3 3 C2.01 3 1.02 3 0 3 C0 4.32 0 5.64 0 7 C-0.66 7 -1.32 7 -2 7 C-1.125 2.25 -1.125 2.25 0 0 Z " fill="#F7691F" transform="translate(112,31)"/>
</svg>
