<svg xmlns="http://www.w3.org/2000/svg" width="35.683" height="27.748" viewBox="0 0 35.683 27.748">
  <path id="Icon_awesome-home" data-name="Icon awesome-home" d="M17.367,9.452,5.947,18.858V29.011A.991.991,0,0,0,6.938,30l6.942-.018a.991.991,0,0,0,.986-.991V23.064a.991.991,0,0,1,.991-.991h3.964a.991.991,0,0,1,.991.991v5.924a.991.991,0,0,0,.991.994L28.742,30a.991.991,0,0,0,.991-.991V18.852l-11.418-9.4A.755.755,0,0,0,17.367,9.452Zm18.04,6.393-5.179-4.269V3a.743.743,0,0,0-.743-.743H26.017A.743.743,0,0,0,25.273,3v4.5L19.727,2.932a2.973,2.973,0,0,0-3.779,0L.269,15.845a.743.743,0,0,0-.1,1.047l1.58,1.92a.743.743,0,0,0,1.047.1l14.571-12a.755.755,0,0,1,.948,0l14.571,12a.743.743,0,0,0,1.047-.1l1.58-1.92a.743.743,0,0,0-.105-1.049Z" transform="translate(0.001 -2.254)" fill="#fff"/>
</svg>
