<svg xmlns="http://www.w3.org/2000/svg" width="35.994" height="35.994" viewBox="0 0 35.994 35.994">
  <path id="Icon_awesome-user-circle" data-name="Icon awesome-user-circle" d="M18,.562a18,18,0,1,0,18,18A17.994,17.994,0,0,0,18,.562Zm0,6.967a6.386,6.386,0,1,1-6.386,6.386A6.386,6.386,0,0,1,18,7.529Zm0,24.963A13.906,13.906,0,0,1,7.366,27.543a8.091,8.091,0,0,1,7.148-4.34,1.776,1.776,0,0,1,.515.08,9.608,9.608,0,0,0,2.968.5,9.572,9.572,0,0,0,2.968-.5,1.776,1.776,0,0,1,.515-.08,8.091,8.091,0,0,1,7.148,4.34A13.906,13.906,0,0,1,18,32.492Z" transform="translate(0 -0.563)" fill="#313131"/>
</svg>
